<svg width="4134" height="4134" xmlns="http://www.w3.org/2000/svg" xmlns:undefined="http://vectornator.io" clip-rule="evenodd" xml:space="preserve" version="1.1" stroke-miterlimit="10">

 <g>
  <title>Layer 1</title>
  <g  id="Untitled">
   <g id="svg_1">
    <path stroke="#000" id="svg_2" fill-rule="nonzero" fill="#fff" d="m2265.69,297.941c-38.33,5.974 -46.73,8.961 -55.43,19.486c-18.8,22.758 -4.84,57.605 24.8,62.299c3.28,0.569 11.26,0 18.52,-1.422c19.95,-3.556 40.61,-6.258 48.88,-6.401c6.84,0 7.55,0.285 9.12,3.841c2.56,6.116 10.97,15.93 16.67,19.628c7.84,5.121 17.24,7.539 41.61,10.668c12.11,1.564 26.93,3.982 32.77,5.547c11.12,2.845 34.06,12.374 61.13,25.46c19.24,9.245 26.65,10.525 35.2,6.258c7.98,-4.125 12.68,-10.241 14.82,-19.344c5.13,-22.9 -16.39,-52.911 -51.44,-72.255c-17.96,-9.814 -50.3,-18.917 -77.38,-21.762c-9.4,-0.996 -9.83,-1.28 -13.82,-7.112c-7.84,-11.379 -22.37,-20.339 -40.47,-25.033c-13.11,-3.414 -42.32,-3.414 -64.98,0.142z"/>
    <path stroke="#000" id="svg_3" fill-rule="nonzero" fill="#fff" d="m2044.12,306.617c-26.79,2.561 -49.73,11.095 -63.7,23.896c-6.84,6.258 -8.55,7.112 -17.67,8.534c-49.3,7.538 -90.2,31.007 -114.71,65.57c-23.51,33.141 -26.07,62.157 -6.41,74.105c5.56,3.413 17.81,3.556 24.08,0.284c2.43,-1.28 16.25,-11.236 30.64,-22.331c34.2,-26.171 34.06,-26.029 41.89,-30.153c12.4,-6.259 28.93,-10.668 48.45,-12.659c20.52,-1.992 32.92,-8.108 41.47,-20.056c5.98,-8.676 10.4,-9.814 35.19,-9.814c15.82,0 21.52,0.569 24.37,2.134c16.1,9.103 15.96,9.103 27.64,9.103c13.4,0 19.95,-2.703 28.07,-11.663c6.7,-7.397 7.98,-9.957 9.69,-19.06c3.99,-20.624 -9.69,-40.395 -34.05,-49.64c-19.67,-7.396 -49.87,-10.667 -74.95,-8.25z"/>
    <path stroke="#000" id="svg_4" fill-rule="nonzero" fill="#fff" d="m2558.52,429.366c-12.82,4.125 -19.38,9.53 -25.08,20.766c-4.7,9.104 -4.7,23.611 0.14,33.283c4.71,9.388 13.54,16.784 23.66,19.913c20.23,6.259 28.92,13.939 38.33,33.283c6.55,13.086 7.69,14.508 30.92,37.124c34.91,33.852 46.31,48.502 60.99,78.229c4.56,9.103 10.54,22.9 13.39,30.723c2.85,7.822 6.41,16.925 7.98,20.197c8.27,17.921 27.79,28.02 45.03,23.184c8.55,-2.418 19.24,-12.232 23.08,-20.908c6.84,-16.215 4.99,-30.154 -8.4,-62.015c-21.38,-50.778 -44.32,-83.634 -85.79,-122.606c-15.24,-14.366 -17.24,-16.784 -23.08,-28.589c-4.7,-9.815 -8.98,-15.931 -17.1,-24.607c-24.94,-26.314 -64.69,-44.377 -84.07,-37.977z"/>
    <path stroke="#000" id="svg_5" fill-rule="nonzero" fill="#fff" d="m1782.64,469.192c-20.95,6.258 -37.76,16.073 -51.44,30.296c-15.39,15.93 -25.79,33.567 -31.35,52.769c-2.14,7.539 -4.13,10.668 -12.82,19.913c-19.67,20.909 -30.35,37.55 -41.18,63.579c-3.28,7.823 -8.84,20.34 -12.4,27.736c-16.53,34.99 -23.66,58.885 -28.07,95.439c-5.13,41.96 -4.71,59.597 4.13,140.671c1.28,11.379 3.28,30.154 4.42,41.959c4.27,42.528 6.27,61.586 8.4,80.366c5.85,52.91 6.56,57.03 11.55,67.56c1.85,3.84 3.13,7.25 2.85,7.39c-0.29,0.29 -4.14,1.43 -8.7,2.56c-12.25,3.28 -29.21,10.96 -40.46,18.35c-10.41,6.97 -26.65,23.05 -34.2,34c-7.27,10.66 -15.39,29.01 -19.67,44.37c-3.7,13.52 -3.99,15.79 -3.99,44.81c0,31.15 1,39.68 7.41,62.58c13.4,48.36 39.19,92.6 73.96,127.16c21.8,21.48 52.72,42.24 75.66,50.64c10.97,3.98 13.97,4.4 23.94,3.98l11.26,-0.43l4.41,18.49c16.39,67.28 46.03,150.34 71.54,200.55c6.12,11.95 6.69,13.8 7.69,27.74c0.57,8.25 1.71,22.33 2.57,31.29c0.85,8.96 1.56,21.34 1.56,27.31l0,11.09l-8.4,0c-17.39,0 -42.75,8.4 -59.57,19.49c-23.08,15.5 -38.9,31.29 -63.98,64.29c-6.12,8.25 -19.09,23.18 -28.78,33.28c-26.36,27.6 -27.36,30.44 -27.36,78.52l0,32.71l-9.69,4.55c-20.09,9.53 -74.52,40.54 -101.45,57.75c-15.39,9.96 -38.76,26.31 -97.61,68.56c-130.81,93.87 -176.69,125.87 -261.05,182.34c-112.57,75.1 -127.96,86.62 -167.717,125.45c-70.677,69.27 -102.311,123.89 -136.509,235.54c-14.535,47.8 -35.054,123.89 -43.318,160.73c-1.283,5.4 -3.135,13.51 -4.133,17.78c-3.42,14.51 -14.677,67.42 -18.951,88.9c-4.56,22.33 -6.983,35.13 -10.972,57.6c-1.283,7.4 -3.278,18.35 -4.275,24.18c-14.962,83.07 -26.932,181.21 -34.769,286.6c-8.265,108.67 -10.972,185.62 -12.254,335.68c-0.285,46.08 -0.998,90.89 -1.568,99.28c-0.712,12.37 -0.427,17.07 1.568,24.18c4.702,16.78 15.816,27.59 31.491,30.86c12.397,2.56 27.216,-2.98 36.621,-13.51c6.127,-6.83 8.122,-14.51 7.979,-30.44c-0.142,-8.25 0.855,-26.88 2.138,-41.39c2.992,-34.56 3.705,-79.22 1.14,-83.49c-4.275,-7.68 0.142,-173.53 7.552,-283.47c2.565,-35.85 5.842,-77.81 7.837,-96.01c0.713,-7.11 1.71,-16.93 2.138,-22.05c0.427,-5.12 1.425,-14.36 2.137,-20.62c0.712,-6.26 2.28,-20.06 3.562,-30.58c10.687,-92.46 31.492,-211.22 54.148,-308.65c0.998,-4.27 2.85,-12.38 3.99,-17.78c2.28,-9.82 14.677,-58.6 21.517,-83.92c9.262,-34.99 23.369,-81.22 32.203,-106.68c2.423,-7.11 5.415,-15.64 6.697,-19.2c8.123,-23.33 30.779,-68.98 38.616,-77.94l3.848,-4.41l15.674,6.4c50.87,20.48 98.89,50.63 131.81,83.06c26.22,25.75 45.88,54.48 70.53,103.12c23.94,47.37 37.34,80.08 56.43,137.69c16.67,50.77 20.95,57.18 36.34,57.03c8.26,-0.14 14.96,-4.41 18.8,-11.94c3.28,-6.12 3.28,-7.26 2.57,-29.16c-2.42,-71.97 -32.63,-165.28 -76.8,-237.25c-27.79,-45.37 -68.83,-88.19 -112.86,-117.63c-26.93,-17.92 -71.96,-42.24 -90.77,-48.79c-1.42,-0.56 -2.56,-1.42 -2.56,-2.13c0,-0.71 5.98,-6.83 13.25,-13.37c33.63,-30.72 48.73,-41.67 144.77,-106.11c83.93,-56.18 134.66,-91.45 246.66,-171.67c18.38,-13.09 36.62,-26.18 40.47,-28.88c3.84,-2.7 16.1,-11.52 27.07,-19.48c11.12,-7.97 26.79,-18.92 35.05,-24.47c32.35,-21.48 88.21,-53.91 89.78,-52.06c0.42,0.57 1.71,5.27 2.7,10.39c3.71,19.91 17.39,68.84 23.8,85.34c1,2.7 5.98,16.5 11.11,30.58c30.93,86.34 58.57,140.81 94.34,185.62c12.82,16.07 43.88,46.93 51.86,51.63c8.7,4.97 25.79,9.81 37.05,10.52c11.54,0.71 19.67,-2.42 28.07,-10.95c9.98,-10.1 11.83,-18.06 11.83,-50.35c0,-46.51 5.13,-67.14 20.66,-82.5c5.27,-5.26 14.68,-10.81 18.38,-10.81c1.14,0 4.71,4.98 8.13,10.95c3.27,6.12 10.26,17.78 15.53,26.03c23.94,37.84 53.58,96.87 71.96,143.66c2.85,7.4 6.98,17.92 9.26,23.47c2.14,5.4 4.99,12.8 6.27,16.36c1.14,3.55 4.13,11.8 6.7,18.49c11.11,30.15 32.34,91.74 56.71,164.99c6.98,20.77 13.82,40.54 15.39,44.09c1.71,3.56 4.99,11.24 7.55,17.07c14.53,33.43 27.07,54.48 36.19,60.31c11.12,7.25 27.36,2.98 33.06,-8.68c5.13,-10.81 4.13,-38.69 -2.42,-74.96c-5.98,-32 -13.54,-56.18 -56,-179.35c-13.39,-39.12 -37.33,-102.84 -47.02,-125.74c-2.85,-6.68 -4.85,-12.23 -4.56,-12.66c0.28,-0.28 1.99,0.29 3.7,1.14c4.99,2.7 35.91,12.66 46.46,14.93c35.76,7.97 61.7,10.67 101.02,10.67c74.24,0 145.77,-12.8 206.19,-36.84c12.4,-4.83 37.19,-17.07 45.46,-22.33c2.99,-1.85 5.7,-3.41 5.98,-3.41c0.43,0 1,9.39 1.57,20.91c0.57,11.66 1.57,30.58 2.42,42.38c2.14,32.86 1.85,63.44 -0.71,78.94c-1.28,7.4 -5.84,31.15 -10.12,52.63c-9.12,45.51 -9.54,47.79 -13.68,70.41c-4.84,27.16 -16.67,86.47 -19.8,99.99c-9.12,39.11 -12.4,49.49 -17.67,56.46c-8.55,11.1 -8.69,12.24 -8.55,65.43c0,26.6 0.85,71.97 1.71,100.99c1,28.87 2.42,71.83 3.13,95.3c1.57,47.5 3.42,91.03 5.7,129.43c0.71,14.08 2.42,43.24 3.56,64.72c2.57,46.79 5.85,99.85 7.84,127.3c0.86,10.95 2.14,30.15 2.85,42.67c0.71,12.51 2.42,36.55 3.56,53.34c1.14,16.78 2.71,40.53 3.57,52.62c0.71,12.09 1.71,25.61 2.13,29.87c0.43,4.27 1.43,17.35 2.14,29.16c0.71,11.66 2.42,35.27 3.56,52.2c1.14,17.07 3.14,44.66 4.28,61.16c4.13,59.03 4.27,61.16 8.55,69.84c6.41,13.8 19.09,21.76 34.2,21.48c16.38,-0.29 28.64,-9.53 35.05,-26.32c2.85,-7.96 3.14,-9.95 2.14,-29.44c-0.43,-11.52 -1.57,-28.02 -2.28,-36.55c-0.71,-8.68 -2,-25.89 -2.85,-38.41c-2.57,-36.84 -4.13,-59.31 -6.41,-91.74c-4.14,-58.17 -10.26,-149.35 -12.12,-177.79c-0.71,-12.09 -1.99,-31.29 -2.85,-42.67c-0.71,-11.38 -2.42,-37.55 -3.56,-58.32c-1.14,-20.77 -2.71,-47.65 -3.56,-59.74c-0.71,-12.09 -1.71,-30.01 -2.14,-39.82c-0.43,-9.82 -1.42,-29.02 -2.14,-42.67c-2.13,-37.41 -4.13,-91.46 -5.7,-149.35c-0.71,-28.59 -2.13,-74.96 -2.99,-103.12l-1.71,-51.21l5.13,-12.8c5.42,-13.79 12.68,-39.68 20.81,-74.67c2.56,-10.81 16.24,-79.22 19.95,-99.56c4.84,-27.17 8.12,-44.1 13.82,-71.83c14.53,-71.26 15.81,-84.92 12.96,-140.1c-1.14,-21.48 -1.71,-39.55 -1.42,-40.26c1.85,-3.41 20.09,13.52 30.07,27.88c7.69,11.1 15.95,26.88 22.94,43.67c9.26,22.33 22.23,33.14 39.75,33.14c7.41,0 11.12,-0.86 16.67,-3.7c13.4,-6.69 18.81,-16.07 20.67,-35.56c0.71,-7.25 1.99,-17.64 2.99,-23.04c1.99,-12.23 1,-38.97 -2.99,-76.81c-6.56,-62.72 -13.26,-100.42 -23.52,-132.7c-2.13,-6.55 -3.42,-12.24 -3.13,-12.66c0.43,-0.29 11.83,4.83 25.51,11.52c24.08,11.95 34.76,17.49 68.11,35.7c39.18,21.34 112.85,60.88 137.51,73.96c108.01,56.9 155.46,87.05 206.04,130.43c8.84,7.54 9.55,8.54 10.4,15.65c0.57,4.12 2.28,11.38 3.85,16.07c11.54,35.27 19.38,92.17 28.36,209.8c0.71,9.81 1.71,20.34 2.13,23.47c0.43,3.12 1.29,13.08 2.14,22.04c4.42,50.49 15.68,142.38 22.23,180.36c8.12,47.64 14.25,59.31 31.49,59.31c13.82,0 20.95,-8.68 22.66,-27.45c2.56,-30.3 -3.56,-237.39 -7.41,-251.05c-0.43,-1.28 -0.14,-2.42 0.57,-2.42c2.71,0 25.65,82.36 35.91,129.44c10.97,49.78 21.09,103.69 26.36,140.1c1.14,7.82 2.71,18.35 3.42,23.47c7.12,47.22 17.81,138.53 22.09,187.75c5.13,58.17 6.55,77.23 9.4,128.01c0.71,13.65 2,36.41 2.85,50.49c3.42,59.74 6.41,166.99 7.84,276.65c0.85,71.69 1.28,78.09 4.98,85.34c7.27,14.37 16.11,19.91 31.35,19.91c21.66,0 34.34,-13.51 39.33,-41.96c3.14,-18.2 2.57,-84.06 -2.28,-244.64c-3.99,-131.71 -12.68,-259.01 -24.93,-364.12c-5.7,-49.07 -10.26,-83.49 -18.53,-139.39c-4.42,-29.59 -17.67,-101.84 -21.94,-119.48c-0.86,-3.13 -2.85,-11.8 -4.42,-19.2c-17.24,-77.23 -38.33,-147.07 -68.82,-228.29c-17.39,-46.51 -47.46,-115.49 -58.14,-133.7c-11.12,-19.06 -28.22,-36.7 -63.84,-65.85c-53.72,-44.1 -98.32,-71.69 -214.6,-133.28c-22.22,-11.66 -36.76,-19.48 -44.17,-23.47c-3.85,-2.13 -15.1,-8.25 -24.94,-13.51c-27.07,-14.65 -41.46,-22.47 -82.64,-44.8c-20.38,-11.1 -85.21,-42.82 -106.16,-51.92c-10.12,-4.55 -25.36,-10.38 -33.77,-13.23l-15.39,-4.97l-4.13,-10.81c-2.28,-5.98 -7.56,-18.78 -11.54,-28.45c-3.99,-9.67 -10.12,-27.03 -13.68,-38.4c-12.69,-40.97 -17.96,-51.64 -33.35,-67.14c-15.53,-15.65 -35.05,-24.89 -61.13,-29.16c-6.55,-0.99 -12.25,-2.27 -12.68,-2.7c-1.14,-1 2.28,-36.13 4.7,-50.49c3.42,-19.21 9.12,-39.83 13.4,-49.22c3.27,-6.97 8.26,-12.94 26.79,-31.29c28.07,-27.88 43.03,-46.51 61.41,-76.66c8.98,-14.51 25.65,-47.65 29.5,-58.32c1.42,-3.98 3.13,-7.82 3.56,-8.53c5.13,-7.4 26.5,-77.66 36.91,-120.9c2.42,-10.24 5.27,-22.05 6.41,-26.32c0.99,-4.26 3.99,-17.63 6.69,-29.58l4.71,-21.76l13.82,-7.26c44.03,-22.9 82.65,-66.56 113.14,-127.58c13.68,-27.6 22.23,-51.78 28.64,-81.22c2,-9.24 2.71,-18.2 2.71,-37.69c0,-22.47 -0.43,-27.03 -3.28,-36.84c-8.55,-29.44 -24.37,-50.63 -46.88,-62.44c-11.4,-5.97 -27.93,-10.81 -38.47,-11.24l-7.56,-0.28l0,-20.77c0,-12.37 0.86,-24.04 2,-29.16c1.14,-4.69 2.42,-13.08 2.99,-18.49c1.71,-18.2 5.13,-43.66 10.83,-80.36c2.99,-19.912 6.13,-40.821 6.98,-46.225c2.85,-18.775 5.56,-46.938 7.84,-81.074c1.14,-18.775 2.85,-42.813 3.71,-53.338c3.27,-42.102 3.27,-44.52 0.28,-51.347c-6.7,-15.219 -18.95,-23.184 -35.34,-23.184c-7.69,0 -11.54,0.711 -16.38,3.271c-19.67,10.099 -23.8,22.331 -27.22,81.927c-3.42,60.45 -3.42,60.45 -4.7,53.196c-0.57,-3.698 -0.72,-10.383 -0.15,-14.935c2.57,-22.33 0.57,-31.434 -8.83,-41.959c-6.56,-7.254 -6.98,-7.396 -38.9,-19.486c-27.36,-10.241 -32.35,-12.375 -59.85,-25.46c-30.07,-14.224 -32.06,-14.65 -70.82,-15.077l-33.91,-0.284l-13.54,-5.263c-32.2,-12.375 -44.31,-14.508 -81.93,-14.366c-20.95,0 -31.49,0.569 -39.9,2.276c-41.89,8.818 -57.71,18.917 -57.71,36.981c0,25.033 25.79,35.274 94.33,37.834c32.35,1.138 35.34,1.423 45.31,5.121c37.91,13.654 46.74,15.361 80.94,15.077l27.5,-0.142l12.4,5.831c21.51,10.241 42.18,19.344 45.88,20.482c2,0.569 4.28,1.565 4.99,2.134c0.85,0.568 4.84,2.133 8.98,3.555l7.4,2.703l0,8.534c0,11.094 3.57,35.559 6.56,46.084c2.85,9.814 7.69,19.628 14.82,30.154c8.98,13.228 11.83,20.766 15.67,41.25c0.72,4.26 2.43,12.23 3.57,17.78c3.56,16.07 9.12,57.03 9.26,68.84c0,2.99 -0.29,3.13 -2.71,1.42c-1.57,-1.14 -7.12,-5.12 -12.54,-8.96c-18.1,-13.09 -29.07,-15.79 -47.73,-11.66c-4.99,0.99 -13.4,2.56 -18.96,3.55c-36.9,5.69 -47.87,7.97 -81.93,16.5c-52.44,13.09 -76.23,24.18 -81.51,37.69c-1.85,4.98 0,20.63 2.85,24.18c2.43,2.71 2.43,2.71 12.4,0c5.56,-1.56 16.67,-4.12 24.94,-5.68c13.39,-2.42 23.65,-3.85 59.84,-8.54c58,-7.4 89.63,-4.83 130.24,10.53c5.56,2.13 10.69,3.55 11.55,3.13c2.28,-0.86 1.42,21.62 -2.28,61.01c-1.71,17.21 -2.71,35.42 -2.43,40.54c2.14,29.3 26.36,46.23 50.3,34.99c15.68,-7.25 24.8,-24.32 27.5,-51.49l1,-9.67l5.56,-1.14c7.69,-1.56 12.25,1 16.39,9.39c11.4,22.9 -0.57,74.39 -28.5,123.32c-5.42,9.38 -12.54,20.76 -15.96,25.17l-5.99,8.11l-0.71,-7.82c-1.14,-13.23 -8.98,-23.61 -22.8,-30.73c-6.13,-3.12 -21.51,-3.55 -28.5,-0.71c-11.4,4.7 -20.52,15.08 -24.51,27.88c-2.42,7.82 -6.41,24.04 -8.83,35.56c-1.43,6.26 -3.42,15.22 -4.42,19.91c-3.7,16.5 -6.41,28.73 -12.82,58.32c-11.69,53.91 -21.95,96.15 -29.78,123.17c-13.97,47.65 -20.95,66.29 -36.77,97.58c-17.24,34.28 -36.48,60.02 -64.83,87.19c-22.52,21.62 -46.88,38.97 -94.48,67.42c-59.27,35.41 -93.61,57.6 -101.45,65.57c-17.96,18.06 -9.98,40.96 14.82,42.95c17.1,1.42 63.84,-13.23 107.01,-33.28c5.99,-2.85 11.4,-4.84 11.83,-4.27c0.43,0.43 0,5.83 -1,11.95c-2.71,15.65 -2.71,107.25 -0.14,125.59c7.12,50.35 19.52,87.05 36.33,107.11c5.13,6.25 6.56,9.81 16.11,43.38c5.84,20.05 11.82,42.67 13.39,50.06c2.57,12.66 5.7,35.14 5.7,42.25c0,2.27 -4.56,6.11 -20.23,16.5c-23.66,15.64 -36.34,22.47 -56,30.44c-53.01,21.62 -125.4,33.42 -190.23,31.29c-37.48,-1.28 -60.85,-5.26 -91.91,-15.51c-20.66,-6.82 -36.2,-14.65 -63.41,-32.57c-25.22,-16.64 -42.18,-27.16 -47.31,-29.3c-4.27,-1.85 -13.11,-15.93 -23.23,-36.98c-7.41,-15.36 -12.82,-21.9 -21.51,-26.03c-5.7,-2.84 -7.13,-4.55 -13.4,-16.92c-6.69,-12.81 -11.54,-21.91 -26.36,-49.22c-24.51,-45.23 -41.89,-83.92 -74.52,-165.7c-7.13,-17.64 -14.97,-36.84 -17.39,-42.81l-4.7,-10.96l5.27,-8.67c7.41,-12.23 15.39,-28.73 19.81,-41.39c9.26,-26.46 20.95,-80.93 20.95,-98.14c0,-11.53 1.28,-11.53 15.81,1.42c43.32,38.26 95.9,71.54 150.19,95.15c3.99,1.71 8.41,3.7 9.98,4.41c18.95,8.68 52.58,19.2 72.53,22.76c23.79,4.12 36.62,-1.28 40.89,-17.21c1.57,-5.69 1.43,-7.54 -0.71,-13.23c-2.99,-7.68 -8.27,-12.09 -25.79,-21.48c-47.31,-25.17 -101.89,-58.88 -151.76,-93.59c-56,-38.97 -106.16,-94.01 -129.53,-141.8c-31.77,-65.29 -64.55,-165.28 -73.38,-224.45c-2.57,-16.64 -6.7,-24.89 -15.82,-31.86c-12.54,-9.53 -28.35,-10.53 -42.32,-2.99c-6.98,3.84 -16.67,14.51 -16.81,18.49c0,4.55 -5.13,0.14 -25.94,-22.04c-31.63,-34 -43.03,-47.37 -53.43,-63.16c-30.92,-46.79 -41.61,-103.54 -26.22,-139.53c4.27,-9.96 15.67,-21.19 26.22,-25.89c9.26,-4.26 27.07,-6.54 31.2,-4.12c2.85,1.71 17.96,19.49 23.52,27.59c9.54,14.08 17.81,35.99 19.66,52.63c3.99,33.85 14.25,65 25.22,76.38c5.99,6.12 12.4,8.96 20.38,8.96c13.68,0 22.51,-8.96 29.07,-29.73c9.26,-29.44 9.69,-32.85 10.83,-108.24c0.42,-32.71 1.28,-48.78 2.7,-54.76c1.71,-7.25 7.98,-26.17 29.36,-87.47c7.26,-20.91 12.11,-28.02 31.2,-46.94c10.83,-10.67 20.24,-21.477 23.52,-26.882c5.98,-9.814 13.1,-26.882 17.09,-41.39c7.27,-26.314 11.12,-36.27 15.82,-42.102c9.55,-11.663 24.37,-20.482 50.59,-30.296c21.94,-8.25 31.06,-12.09 46.59,-19.344c27.65,-13.086 45.17,-16.926 84.79,-19.202c17.38,-0.995 31.35,-2.987 59.27,-8.392c40.33,-7.68 65.55,-11.521 77.38,-11.521c20.09,-0.142 35.91,-16.357 36.05,-36.981c0.28,-17.779 -9.12,-31.291 -25.51,-37.123c-7.41,-2.702 -10.54,-2.987 -23.51,-2.276c-21.66,1.28 -61.7,7.681 -99.03,15.931c-5.42,1.138 -20.81,2.844 -34.06,3.556c-23.08,1.422 -44.88,4.124 -57.14,7.253c-8.69,2.134 -27.93,8.392 -32.77,10.526c-15.39,6.827 -21.52,9.672 -28.07,12.659c-4.14,1.849 -16.82,6.969 -28.22,11.236c-11.4,4.267 -25.22,9.957 -30.63,12.801c-5.56,2.703 -15.96,6.543 -23.09,8.535c-22.94,6.258 -60.27,22.33 -78.08,33.567c-16.82,10.668 -33.92,25.46 -42.04,36.412c-12.68,17.353 -13.39,32.714 -1.85,43.666c8.83,8.392 20.09,8.961 41.04,1.992c10.4,-3.414 14.39,-4.125 14.67,-2.845c1,4.267 -6.98,15.219 -22.37,30.438c-9.12,8.961 -19.66,21.051 -23.37,26.74c-6.55,9.672 -15.67,27.882 -18.24,35.842c-0.57,1.99 -3.99,11.81 -7.69,22.05c-3.71,10.1 -7.13,20.05 -7.84,22.04c-0.57,2 -2.71,7.12 -4.7,11.38c-4.42,9.68 -10.97,28.59 -10.97,31.72c0,4.13 -2.85,4.13 -9.27,-0.14c-3.56,-2.28 -10.54,-5.97 -15.53,-8.11l-9.12,-3.84l3.99,-7.68c6.13,-11.52 6.42,-19.06 2.28,-53.34c-3.42,-28.73 -4.84,-41.957 -10.11,-93.019c-2.85,-27.451 -4.28,-40.537 -8.13,-75.384c-4.41,-39.684 -4.41,-92.169 0,-115.922c3.71,-20.055 8.41,-34.563 17.67,-54.049c3.85,-8.25 9.27,-20.34 11.97,-27.025c10.69,-26.313 13.54,-30.58 39.9,-59.312c12.54,-13.796 18.38,-24.18 20.24,-36.27c1.85,-11.805 10.82,-25.46 19.94,-30.153c2.85,-1.423 8.13,-2.276 14.82,-2.276c16.68,-0.142 29.36,-7.681 35.2,-21.335c9.12,-21.193 1.85,-40.964 -18.95,-51.489c-7.7,-3.983 -10.26,-4.552 -22.23,-4.979c-8.27,-0.142 -15.96,0.427 -19.95,1.565zm15.1,1413.528c-0.42,1.85 -1.85,7.54 -3.27,12.66l-2.43,9.53l-7.83,0.85c-10.55,1.28 -18.67,5.12 -25.51,12.24c-8.55,8.67 -10.83,15.78 -9.83,31c0.85,15.22 6.13,31.44 23.94,73.54c6.84,16.36 18.66,45.51 26.22,64.72c7.69,19.2 14.96,37.4 16.24,40.53c20.24,46.23 37.76,82.78 51.73,108.1c11.4,20.34 16.81,30.87 16.81,32c0,0.57 -1.85,1.85 -4.13,2.71c-13.25,5.54 -38.05,31.57 -48.02,50.35c-6.13,11.52 -12.97,31.43 -14.25,40.96c-0.57,3.84 -1.43,6.97 -2.14,6.97c-2.28,0 -23.51,-33.71 -33.63,-53.34c-12.11,-23.89 -22.51,-48.07 -35.34,-82.49c-5.27,-14.08 -10.11,-26.89 -10.68,-28.45c-3,-6.69 -17.25,-51.06 -21.23,-65.43c-9.69,-35.7 -12.12,-55.33 -14.54,-116.2l-1.85,-43.67l11.4,-11.81c6.13,-6.54 15.81,-17.49 21.23,-24.46c5.56,-6.97 14.96,-18.92 20.95,-26.6c11.54,-14.65 25.93,-27.59 36.76,-33.28c8.26,-4.41 10.54,-4.55 9.4,-0.43zm705.49,191.02c10.4,3.13 13.68,7.68 19.67,27.46c9.54,31 19.95,59.59 30.63,83.49c0.72,1.56 6.41,15.36 12.83,30.58c6.41,15.22 16.67,37.97 22.8,50.49c13.11,26.46 19.52,44.8 25.5,72.54c4.7,21.9 9.12,49.07 8.12,50.07c-0.28,0.28 -5.27,-1.85 -11.11,-4.98c-9.97,-5.55 -26.79,-11.81 -36.34,-13.8c-2.56,-0.57 -4.98,-1.42 -5.41,-2.13c-0.43,-0.71 -1.43,-12.66 -2.14,-26.6c-2.71,-47.93 -6.98,-71.83 -22.23,-122.89c-2.7,-9.1 -7.12,-25.32 -9.83,-36.13c-6.55,-26.03 -11.83,-33.71 -27.5,-39.82c-6.98,-2.85 -6.84,-2.71 -8.84,-24.18c-0.85,-8.68 -2.13,-20.49 -2.84,-26.32c-1.29,-10.95 -1.86,-19.91 -1,-19.91c0.28,0 3.7,1 7.69,2.13z"/>
    <path stroke="#000" id="svg_6" fill-rule="nonzero" fill="#fff" d="m1987.69,1083.08c-14.25,2.42 -42.61,15.79 -52.44,24.75c-3.56,3.41 -9.69,8.25 -13.68,10.81c-18.38,12.37 -23.51,18.91 -23.51,30.29c0,6.83 3.85,13.8 9.97,18.35c3.42,2.42 3.85,2.42 12.83,-0.28c12.82,-3.99 34.63,-9.96 44.88,-12.09c4.71,-1 15.25,-3.28 23.52,-5.12c13.53,-2.99 18.52,-3.28 54.14,-3.28c35.2,-0.14 40.76,0.29 54.15,3.13c24.23,5.12 42.89,9.68 47.74,11.67c4.41,1.7 20.66,5.4 27.64,6.26c5.7,0.56 6.98,0.14 12.4,-4.27c6.84,-5.69 11.4,-15.36 9.97,-21.19c-1.42,-5.69 -14.82,-13.23 -44.31,-24.9c-6.56,-2.56 -45.17,-14.36 -58,-17.78c-20.23,-5.4 -44.88,-10.24 -66.69,-13.37c-26.5,-3.84 -31.06,-4.12 -38.61,-2.98z"/>
    <path stroke="#000" id="svg_7" fill-rule="nonzero" fill="#fff" d="m2506.65,1201.99c-33.48,4.83 -64.12,19.06 -79.94,36.98c-5.55,6.4 -12.82,22.04 -12.82,27.73c0,12.66 11.4,21.48 23.51,18.21c5.41,-1.57 15.67,-12.94 17.24,-19.2c1.28,-5.12 3.42,-4.27 10.97,4.41c9.98,11.38 24.23,18.06 40.33,18.91c14.11,0.72 21.94,-0.99 34.2,-7.68c13.39,-7.25 23.79,-20.34 28.35,-35.7l2.14,-6.97l8.12,1c16.96,2.13 29.5,4.27 42.18,6.97c17.24,3.84 21.66,3.7 25.94,-0.71c8.55,-8.4 1.85,-18.64 -18.39,-28.45c-32.06,-15.36 -80.5,-21.48 -121.83,-15.5z"/>
    <path stroke="#000" id="svg_8" fill-rule="nonzero" fill="#fff" d="m2018.47,1209.67c-29.5,4.55 -56.86,12.8 -64.84,19.48c-5.7,4.7 -5.98,12.52 -0.71,17.5c2.99,2.84 4.84,3.27 13.82,3.13c5.7,-0.15 17.96,-1 27.22,-1.85c9.26,-0.86 16.96,-1.42 17.24,-1.14c0.14,0.28 2.42,4.98 5.13,10.53c14.82,30.72 51.16,43.23 81.79,28.3c8.41,-4.12 23.94,-19.06 25.79,-24.61c0.43,-1.7 1.71,-2.98 2.85,-2.98c3.71,0 19.1,12.8 24.51,20.34c6.41,9.38 11.12,12.37 18.67,12.37c12.25,0 21.23,-11.95 17.67,-23.75c-3.56,-11.95 -24.51,-32.43 -43.04,-42.25c-13.39,-6.97 -32.77,-13.08 -50.3,-15.64c-20.51,-2.99 -53.72,-2.85 -75.8,0.57z"/>
    <path stroke="#000" id="svg_9" fill-rule="nonzero" fill="#fff" d="m2317.7,1339.81c-10.82,3.84 -16.24,13.94 -14.39,26.88c2.28,14.94 24.08,42.53 39.76,50.36c6.13,2.98 6.41,3.41 5.27,7.25c-0.57,2.27 -3.85,9.39 -7.12,15.65c-8.41,16.21 -20.81,29.01 -37.76,39.11c-17.82,10.67 -21.52,17.64 -15.11,29.3c6.41,12.09 27.36,15.08 44.89,6.54c16.1,-7.82 39.47,-33.71 50.3,-55.61c8.83,-17.64 16.1,-41.11 16.1,-51.35c-0.14,-7.54 -4.28,-16.21 -10.12,-20.62c-2.71,-1.99 -9.12,-5.12 -14.25,-6.83c-12.68,-4.12 -19.8,-10.52 -26.36,-23.61c-6.13,-12.23 -8.12,-14.37 -15.82,-17.21c-6.84,-2.42 -8.26,-2.28 -15.39,0.14z"/>
    <path stroke="#000" id="svg_10" fill-rule="nonzero" fill="#fff" d="m2145.86,1607.5c-5.7,3.41 -8.98,10.1 -8.84,17.49c0.15,12.09 6.13,19.2 23.37,27.74c8.27,4.27 11.97,5.12 26.51,6.54c20.8,1.99 48.16,0.85 70.96,-2.99c22.23,-3.69 31.2,-3.55 57.14,0.72c33.34,5.54 56.14,4.12 72.1,-4.56c17.24,-9.38 18.95,-33.14 2.99,-39.68c-5.84,-2.56 -9.12,-2.13 -20.66,2.13c-10.69,3.99 -28.93,3.99 -51.01,0c-22.23,-3.84 -46.6,-3.84 -70.39,0c-20.38,3.42 -47.17,4.13 -62.7,1.57c-10.4,-1.57 -12.11,-2.28 -20.38,-7.97c-5.98,-3.98 -13.68,-4.41 -19.09,-0.99z"/>
    <path stroke="#000" id="svg_11" fill-rule="nonzero" fill="#fff" d="m1922.57,2401.74c-12.68,7.25 -20.24,21.76 -20.24,39.11c0,13.8 3.28,21.19 14.82,32.86c9.12,9.1 10.98,10.24 18.24,11.8c30.78,6.12 54.15,-18.34 47.45,-49.92c-4.7,-22.47 -22.37,-38.26 -43.03,-38.26c-8.12,0 -10.83,0.71 -17.24,4.41zm21.23,29.72c5.56,2.99 8.84,14.65 5.7,19.78c-1.14,1.7 -2.14,1.7 -6.41,-0.43c-7.55,-3.56 -9.69,-8.96 -6.56,-17.07c1.43,-3.98 3,-4.41 7.27,-2.28z"/>
    <path stroke="#000" id="svg_12" fill-rule="nonzero" fill="#fff" d="m2052.38,2730.3c-6.84,3.27 -11.83,8.68 -16.53,17.49c-2.71,4.98 -3.13,8.11 -3.13,20.77c0,13.51 0.42,15.79 3.99,23.04c4.41,8.96 15.24,19.63 20.09,19.63c1.71,0.14 4.56,1 6.55,2.14c2.14,1.28 7.56,1.99 13.54,1.99c12.68,0 21.09,-3.84 27.07,-12.8c4.14,-5.98 4.28,-6.97 4.28,-21.2c0,-14.93 -1.57,-22.04 -7.27,-32.85c-3.56,-6.97 -12.25,-15.79 -18.38,-18.49c-8.12,-3.7 -22.51,-3.56 -30.21,0.28zm20.09,35.84c1.43,2.99 2.85,7.97 3.28,10.96c0.71,4.97 0.43,5.68 -1.99,5.68c-5.99,0 -10.55,-10.52 -8.41,-19.2c1.28,-4.98 3.85,-3.98 7.12,2.56z"/>
    <path stroke="#000" id="svg_13" fill-rule="nonzero" fill="#fff" d="m2531.02,2876.38c-5.84,5.4 -6.56,10.24 -5.7,39.25c0.71,26.88 2.14,32.43 9.55,36.84c6.98,4.13 12.54,3.13 19.09,-3.27l5.7,-5.83l-0.86,-13.8c-0.57,-7.54 -0.99,-21.33 -0.99,-30.44c0,-16.64 0,-16.64 -4.42,-21.76c-3.85,-4.41 -5.27,-4.98 -11.26,-4.98c-5.55,0 -7.69,0.71 -11.11,3.99z"/>
    <path stroke="#000" id="svg_14" fill-rule="nonzero" fill="#fff" d="m2182.34,2892.16c-8.13,2.28 -11.97,4.27 -17.67,9.39c-10.83,9.81 -14.97,24.75 -10.98,40.54c4.42,17.92 13.68,68.55 19.95,108.81c9.84,64.57 16.39,122.89 22.23,199.84c0.72,10.52 2.14,26.88 2.85,36.27c1.71,19.77 4.7,62.87 7.84,109.52c1.14,17.92 2.71,42.67 3.56,54.76c0.86,12.09 2.14,33.28 2.85,46.94c3.14,52.2 5.7,96.43 6.41,107.38c0.43,6.26 1.71,27.74 2.85,47.65c1.14,19.92 2.85,44.52 3.57,54.76c0.71,10.1 2.13,29.73 2.99,43.38c0.85,13.66 2.14,27.74 2.85,31.3c2.42,10.66 8.12,19.34 16.53,25.17c6.98,4.84 8.98,5.41 18.52,5.83c13.11,0.71 20.66,-1.85 28.93,-9.81c11.26,-10.95 13.25,-20.91 10.69,-54.62c-1.14,-13.23 -3,-40.54 -4.14,-60.45c-1.28,-19.91 -2.99,-45.94 -3.7,-57.6c-0.86,-11.81 -2.14,-32.58 -2.85,-46.23c-2.85,-51.06 -4.28,-75.24 -5.7,-96.72c-0.71,-12.09 -2.42,-37.69 -3.56,-56.89c-2.85,-45.52 -6.13,-92.88 -7.84,-115.93c-0.86,-10.24 -2.14,-27.16 -2.85,-37.69c-9.55,-133.56 -22.09,-232.84 -42.04,-332.26c-6.98,-34.7 -11.11,-42.53 -26.5,-50.35c-6.13,-3.27 -18.52,-4.69 -24.79,-2.99z"/>
    <path stroke="#000" id="svg_15" fill-rule="nonzero" fill="#fff" d="m1296.59,3097.98c-8.97,2.7 -18.66,11.52 -22.65,20.76c-3.71,8.68 -3.57,14.8 1.28,46.66c10.69,71.54 16.81,160.44 22.94,332.83c0.71,21.47 1.99,51.91 2.71,67.56c0.85,15.64 1.85,36.69 2.28,46.94c1.71,39.96 7.69,124.59 8.97,126.58c0.57,0.72 1.29,13.94 1.86,29.16c0.71,21.62 1.42,29.02 3.27,33.29c5.56,12.65 17.1,22.47 29.64,25.31c13.82,2.99 30.07,-4.26 37.62,-17.07c5.84,-9.52 7.13,-18.06 4.28,-27.73c-2.14,-7.82 -4.14,-28.16 -6.56,-68.56c-0.85,-13.37 -2.42,-39.82 -3.56,-59.03c-2.28,-36.98 -5.42,-105.68 -7.84,-167.83c-6.55,-175.38 -12.25,-255.17 -23.65,-333.54c-1.85,-13.37 -4.13,-26.6 -4.7,-29.59c-3,-12.37 -14.68,-23.75 -27.36,-26.45c-8.84,-2 -10.41,-1.85 -18.53,0.71z"/>
    <path stroke="#000" id="svg_16" fill-rule="nonzero" fill="#fff" d="m2141.01,3256c-9.26,4.84 -16.24,11.95 -20.52,20.77c-13.96,28.87 -5.13,56.46 21.38,65.71c13.11,4.69 29.49,0.99 39.18,-8.68c9.41,-9.38 11.26,-14.51 11.26,-31.86c0,-13.37 -0.43,-15.79 -3.85,-22.76c-5.27,-10.66 -13.25,-19.77 -20.23,-22.9c-7.27,-3.27 -21.23,-3.41 -27.22,-0.28zm16.25,35.13c4.13,6.69 4.13,17.21 0,19.49c-2.28,1.14 -3.99,1.14 -6.42,0c-2.85,-1.28 -3.42,-2.56 -3.42,-8.25c0,-5.83 3.99,-16.07 6.27,-16.07c0.29,0 2,2.13 3.57,4.83z"/>
    <path stroke="#000" id="svg_17" fill-rule="nonzero" fill="#fff" d="m2839.23,3280.32c-7.55,3.56 -17.24,14.23 -19.09,21.2c-9.55,34.84 -12.54,55.89 -23.65,163.28c-1.14,11.66 -2.43,24.18 -3,27.74c-2.99,24.18 -9.97,91.6 -11.82,113.78c-4.14,48.36 -6.99,159.88 -4.42,173.39c3.85,21.19 16.53,32.86 35.62,32.86c13.68,0 25.37,-6.97 31.35,-18.5c4.7,-9.1 5.56,-21.19 6.27,-80.36c0.86,-74.81 3.14,-104.68 17.95,-234.69c0.72,-7.11 2.43,-22.04 3.57,-33.42c1.14,-11.38 2.7,-26.74 3.56,-34.14c0.85,-7.39 2.14,-20.19 2.99,-28.44c0.86,-8.25 2.14,-15.51 2.71,-16.22c0.71,-0.71 6.13,0.14 12.68,1.85c20.38,5.55 34.34,7.54 83.5,12.23c11.83,1.14 31.07,3.13 42.75,4.41c11.83,1.28 40.9,2.7 64.84,3.27l43.31,0.86l1.29,4.97c1.99,8.54 2.85,163.72 1.14,239.81c-1.57,68.99 -4.14,118.63 -7.27,135.55c-4.42,24.47 4.27,44.38 22.09,50.5c9.54,3.13 16.81,2.84 25.36,-1.28c13.82,-6.4 21.09,-17.5 24.37,-37.27c6.27,-36.84 9.4,-125.02 9.4,-266.55c0,-135.41 -1.57,-149.77 -18.52,-174.8c-5.42,-7.97 -9.84,-11.95 -18.39,-16.22c-11.82,-6.12 -16.38,-6.68 -69.96,-8.11c-28.64,-0.71 -57.43,-1.85 -64.12,-2.56c-6.7,-0.85 -22.09,-2.42 -34.2,-3.55c-12.11,-1.14 -29.07,-2.85 -37.76,-3.7c-36.2,-3.56 -56.14,-8.54 -80.51,-20.34c-13.25,-6.4 -16.25,-7.25 -25.65,-7.68c-8.26,-0.43 -11.97,0.14 -16.39,2.13z"/>
    <path stroke="#000" id="svg_18" fill-rule="nonzero" fill="#fff" d="m2586.02,3386.71c-4.84,2.56 -7.69,7.83 -8.83,16.22c-1.29,8.96 1.28,65.28 3.27,70.12c5.56,14.37 21.95,14.37 27.93,0c3.14,-7.4 3.14,-74.1 0,-80.08c-3.99,-7.68 -14.39,-10.67 -22.37,-6.26z"/>
    <path stroke="#000" id="svg_19" fill-rule="nonzero" fill="#fff" d="m2165.24,3731.35c-22.09,5.69 -37.62,29.44 -32.21,49.5c1.57,5.69 9.55,14.65 13.4,14.65c0.99,0.14 2.99,2.13 4.56,4.55c4.84,7.68 9.97,10.38 18.95,10.38c13.54,-0.14 28.64,-9.24 34.62,-20.91c5.99,-11.8 4.28,-30.01 -4.13,-43.81c-6.84,-11.09 -22.65,-17.49 -35.19,-14.36zm9.26,36.55c1.99,5.12 1.85,5.98 -2.28,8.54c-3.85,2.56 -5.42,1.85 -6.84,-3.27c-0.71,-2.14 0,-3.99 2.14,-5.98c4.13,-3.84 5.27,-3.7 6.98,0.71z"/>
   </g>
  </g>
 </g>
</svg>