<?xml version="1.0" encoding="UTF-8" standalone="no"?>
<!DOCTYPE svg PUBLIC "-//W3C//DTD SVG 1.1//EN" "http://www.w3.org/Graphics/SVG/1.1/DTD/svg11.dtd">
<!-- Created with Vectornator (http://vectornator.io/) -->
<svg height="100%" stroke-miterlimit="10" style="fill-rule:nonzero;clip-rule:evenodd;stroke-linecap:round;stroke-linejoin:round;" version="1.1" viewBox="0 0 1000 1000" width="100%" xml:space="preserve" xmlns="http://www.w3.org/2000/svg" xmlns:vectornator="http://vectornator.io" xmlns:xlink="http://www.w3.org/1999/xlink">
<defs/>
<g id="Untitled" vectornator:layerName="Untitled">
<path d="M940.1 936.937C939.326 934.926 937.934 923.324 937.006 910.949C935.923 898.574 933.139 874.752 930.664 857.736C928.344 840.875 926.642 826.18 927.106 824.942C928.189 822.158 932.056 821.075 935.15 822.622C937.316 823.859 938.553 829.119 941.183 847.063C946.597 883.569 949.072 905.844 949.536 923.324L950 939.566L945.823 940.03C942.575 940.495 941.183 939.721 940.1 936.937Z" fill="#ffffff" fill-rule="nonzero" opacity="1" stroke="none" vectornator:layerName="path"/>
<path d="M534.97 934.616C531.876 928.893 537.445 923.169 557.245 911.722C559.875 910.176 562.814 906.772 563.897 903.833C565.598 899.038 572.25 892.232 576.736 890.375C578.283 889.757 578.283 889.138 576.427 887.9C573.642 886.044 542.24 875.835 534.661 874.442L529.247 873.36L534.351 878.774C536.981 881.713 539.301 885.116 539.301 886.353C539.301 888.674 519.501 915.59 517.8 915.59C517.181 915.59 510.993 909.557 503.878 902.286C495.988 894.088 490.42 889.602 489.492 890.53C488.563 891.458 492.276 898.419 498.928 908.783C504.96 917.91 509.91 925.799 509.91 926.263C509.756 926.882 508.054 929.202 506.043 931.832C501.557 937.246 498.928 935.699 502.331 929.666C504.806 925.335 504.806 925.18 494.287 909.402C488.409 900.585 483.613 892.541 483.613 891.613C483.613 890.685 485.16 888.364 487.171 886.508L490.884 883.105L504.342 896.408C511.767 903.833 517.954 909.557 518.109 909.247C518.418 908.938 522.131 903.988 526.617 898.264C531.103 892.541 534.661 887.436 534.661 886.818C534.661 886.353 531.567 882.332 527.7 878C523.832 873.514 520.739 869.492 520.739 868.719C520.739 865.161 497.845 840.72 488.254 834.223C480.365 828.964 474.487 823.086 467.062 813.186C461.338 805.761 456.543 799.882 456.233 800.192C455.924 800.346 454.377 806.843 452.521 814.423C449.427 827.726 448.654 838.555 445.56 906.772C444.787 923.633 443.858 931.523 442.466 932.76C439.372 935.235 434.268 932.915 433.185 928.429C432.257 925.026 433.34 898.264 436.433 841.339C437.052 830.201 440.455 811.948 445.869 791.22C446.797 787.043 446.643 786.734 443.24 787.971C432.102 791.529 424.368 787.507 430.246 781.01C433.185 777.762 433.03 777.762 426.997 772.967C408.125 757.652 406.114 753.94 409.208 740.018L410.6 733.83L404.258 741.41C392.656 755.177 388.48 759.199 385.386 759.663C379.972 760.437 380.127 764.459 385.541 770.646C391.264 776.988 392.347 782.867 388.48 788.281C386.778 790.601 386.314 793.54 386.933 797.562C387.706 801.739 386.933 805.142 384.767 809.628C382.602 813.65 381.983 816.125 383.066 817.208C383.994 818.136 384.613 821.694 384.613 825.251C384.613 830.665 383.839 832.522 379.817 835.77C377.188 837.936 374.403 839.792 373.475 839.792C372.702 839.792 372.392 841.648 372.856 844.123C373.475 846.444 373.166 850.62 372.237 853.559C370.381 860.211 361.873 869.183 357.542 869.183C354.758 869.183 353.984 870.73 352.283 879.392L350.117 889.602L357.387 896.872C364.039 903.679 364.503 904.607 362.337 906.772C360.945 908.165 356.769 909.711 353.056 910.176L346.25 911.258L345.322 920.385C344.393 928.429 341.454 934.152 338.515 934.152C334.493 933.998 333.411 930.904 333.72 920.849L334.184 910.176L327.378 910.021C319.643 909.866 321.809 912.032 293.346 876.763C274.165 853.095 271.071 850.62 256.84 848.3C244.465 846.134 210.433 839.637 207.958 838.864C206.411 838.4 205.019 839.173 204.4 841.339C203.936 843.041 198.367 849.538 192.18 855.57C179.495 868.255 172.998 880.785 162.634 912.032C156.601 930.44 154.126 934.307 149.795 931.523C146.083 929.202 147.011 920.54 152.579 904.143C156.601 892.232 156.756 890.685 154.281 893.005C148.558 898.264 145.773 895.635 144.072 883.569C142.679 873.514 142.215 872.741 139.895 874.442C137.575 876.144 137.42 878.619 138.193 895.789L139.122 915.28L131.232 918.683C126.746 920.694 123.189 923.324 122.725 925.026C121.642 928.893 116.073 928.893 113.907 925.026C111.587 920.54 112.051 906.772 115.454 880.785C118.857 854.642 119.321 834.069 116.846 817.672C114.681 803.44 110.813 799.109 91.168 789.518C78.7929 783.331 75.5444 780.856 68.4287 772.348C63.7881 766.779 57.7552 757.962 54.9708 752.702C50.4848 744.194 49.8661 741.874 50.0208 731.51C50.1755 725.168 51.7224 713.257 53.5786 705.213C55.5896 697.014 57.6005 681.546 58.2193 670.408C59.3021 649.37 60.3849 645.812 76.1632 603.118C79.5663 593.992 80.6492 587.804 81.2679 574.501L82.196 557.485L86.8367 557.485C90.8586 557.485 91.4774 558.104 92.7149 563.673C95.9633 578.368 93.0243 592.29 78.3288 632.509C72.4507 648.287 71.6772 652.464 70.5944 669.634C69.8209 680.308 67.5006 697.633 65.335 707.997C63.1693 718.361 61.3131 729.499 61.3131 732.748C61.3131 740.327 66.8819 751.31 76.6272 763.531C82.9695 771.265 86.5273 774.049 96.2727 778.69C102.924 781.784 110.04 785.651 112.051 787.353C116.846 791.065 118.548 791.065 118.548 787.662C118.548 784.104 125.664 763.995 127.675 761.984C129.531 760.127 134.326 762.757 143.453 770.337C147.475 773.74 151.342 776.37 152.27 776.37C153.043 776.37 154.59 774.204 155.519 771.42C157.22 766.624 157.065 766.16 147.784 756.879C142.525 751.62 138.657 746.515 139.276 745.741C141.906 741.565 166.501 724.24 172.225 722.538C175.937 721.455 178.877 719.908 178.877 719.29C178.877 717.433 165.264 703.666 158.922 698.871C154.436 695.622 153.817 694.385 154.745 690.827C157.375 679.844 172.998 691.291 195.738 720.991C213.836 744.659 211.825 743.885 220.642 729.344C223.736 724.085 224.2 721.61 223.891 710.936C223.736 704.13 222.653 696.705 221.571 694.539C217.085 685.722 205.019 630.498 197.594 584.556C194.809 568.004 191.561 550.988 190.478 546.657C187.848 537.53 182.898 511.852 180.269 493.599C178.103 477.666 179.341 474.727 190.788 468.23C200.224 462.97 199.76 464.827 197.903 433.27L196.975 415.79L191.097 412.696C187.848 411.15 184.6 409.757 183.672 409.757C180.887 409.757 142.37 435.126 136.028 441.159C132.47 444.562 128.293 449.822 127.056 452.606C125.664 455.545 121.487 461.269 117.774 465.6C113.907 469.777 109.885 475.191 108.648 477.511C106.327 481.997 100.14 506.747 95.654 529.486C93.9524 538.458 92.0961 543.873 90.3945 544.801C86.682 547.276 82.9695 543.563 82.9695 537.376C82.9695 531.188 88.0742 504.427 92.4055 488.958C96.118 474.881 98.5931 469.931 106.946 460.031C110.504 455.855 115.145 449.203 117.31 445.336C123.189 435.281 131.387 428.011 151.187 415.326C162.944 407.746 168.976 402.951 169.286 400.785C169.595 399.084 170.987 396.764 172.38 395.526C175.937 392.432 195.274 384.852 210.588 380.367C217.394 378.51 232.708 373.251 244.619 368.765C256.53 364.279 271.226 359.019 277.104 357.163C283.137 355.152 291.49 351.904 295.667 349.893C305.412 345.407 315.467 345.252 319.643 349.429C322.737 352.523 322.737 352.523 330.936 346.18C340.836 338.91 342.073 336.435 345.167 318.955C348.106 301.785 348.106 300.392 344.084 282.449L340.681 267.134L333.565 263.576C319.798 256.615 307.732 239.6 306.185 225.368C304.793 211.601 310.362 197.988 318.87 194.74L322.273 193.502L319.334 180.509C317.787 173.393 316.085 159.316 315.621 149.107C314.848 133.793 315.157 129.307 317.323 123.583C318.715 119.716 320.417 113.838 321.19 110.435C322.118 106.103 324.439 102.391 329.389 97.7501C337.278 90.3251 343.156 89.0876 345.94 94.1923C347.333 96.822 346.559 98.2142 340.836 103.783C327.068 116.932 324.284 139.825 331.4 179.58C334.029 194.276 334.803 196.287 338.361 198.453C343.775 201.701 343.929 201.701 344.858 196.442C345.322 194.121 348.106 189.017 350.89 185.304C355.376 179.426 356.15 177.26 356.305 168.598C356.769 155.294 361.1 148.797 367.133 152.665C368.68 153.593 368.834 157.769 368.061 168.907C367.133 182.984 366.823 184.376 361.873 190.873C357.078 196.906 356.15 199.845 353.365 215.932C351.819 225.832 349.653 234.959 348.725 236.042C344.239 241.456 338.825 234.031 340.217 224.595C341.918 214.54 327.532 201.701 321.5 207.734C320.262 208.971 318.87 213.921 318.406 218.562C317.632 228.617 321.035 236.815 330.162 246.097C336.504 252.748 337.587 253.212 338.979 249.036C340.062 245.323 345.322 243.312 348.106 245.633C349.189 246.561 351.354 254.759 352.747 264.041C355.686 282.294 361.564 303.641 366.359 312.768C369.917 319.883 380.436 330.247 393.585 339.683C403.485 346.799 405.496 351.285 399.308 352.213C392.347 353.141 367.133 336.126 361.1 326.38L357.851 321.121L355.222 330.557C351.819 342.622 346.404 350.976 339.134 354.843C336.04 356.544 333.565 358.246 333.565 358.71C333.565 359.329 337.433 363.351 342.073 367.837C350.426 376.035 350.581 376.035 358.006 374.952C363.884 374.179 366.669 372.787 370.536 368.61C376.723 362.113 380.436 361.959 384.922 367.991C386.778 370.466 389.717 373.096 391.419 373.56C397.606 375.416 400.081 378.974 400.081 386.245C400.081 395.062 396.524 402.487 389.408 408.21C384.767 412.078 384.149 413.315 385.541 415.636C386.469 417.028 389.253 418.42 391.728 418.729C394.358 419.039 397.916 421.05 400.236 423.679C403.485 427.547 405.496 428.32 413.075 428.784C417.871 429.093 422.202 428.629 422.821 427.856C423.285 427.083 426.069 425.536 428.854 424.298C433.34 422.442 434.732 422.442 439.991 424.453L446.024 426.928L458.244 414.398C471.857 400.476 474.177 396.454 474.332 387.018C474.332 381.604 473.559 380.057 469.846 377.427C464.896 373.87 461.338 366.135 459.791 355.307L458.708 348.191L451.902 352.058C443.549 356.699 435.041 356.544 434.422 351.749C434.113 349.429 436.279 347.418 443.549 343.241C455.924 336.126 471.084 321.121 478.818 308.127C482.376 302.094 487.79 289.1 491.503 277.498C498.928 253.986 499.392 252.903 502.485 252.284C506.817 251.511 509.756 256.151 508.982 262.494L508.209 268.217L510.529 264.195C513.468 259.091 520.739 231.556 520.739 225.523C520.739 222.12 519.965 221.037 517.8 221.037C515.634 221.037 514.706 222.584 514.087 227.843C512.695 237.898 509.91 242.848 506.198 242.384C503.568 242.075 502.795 240.683 502.485 234.959C502.176 231.092 502.64 222.739 503.414 216.396C504.806 205.568 504.651 204.331 501.248 198.453C496.607 190.563 495.988 173.238 500.01 169.835C504.342 166.277 507.435 170.144 508.673 180.509C509.292 185.768 510.684 191.492 511.921 193.193C514.087 196.287 514.242 196.132 515.325 190.563C515.943 187.315 517.336 176.796 518.264 167.051C519.965 151.272 519.811 148.488 517.336 141.527C513.468 130.389 513.778 126.986 518.264 125.749C523.678 124.511 524.761 125.594 528.473 135.649C531.412 143.229 531.722 146.477 530.948 158.388C529.401 179.116 526.772 197.988 524.606 203.557C522.595 208.043 522.75 208.662 526.153 210.828C532.186 214.85 533.733 223.821 530.793 238.208C525.07 266.825 519.811 276.725 508.209 280.592C504.032 281.984 502.64 284.15 497.535 296.525C491.193 311.994 486.552 319.883 478.354 329.01C474.177 333.651 472.94 336.435 472.012 344.324C470.774 354.843 471.857 360.257 475.106 360.257C476.188 360.257 482.531 363.196 489.182 366.754C496.607 370.776 502.949 373.096 505.579 372.941C508.054 372.787 512.54 373.87 515.789 375.571L521.667 378.665L523.678 369.074C526.307 355.771 534.042 333.805 540.384 320.811C551.367 298.691 564.98 283.222 582.46 273.322C589.73 269.145 592.669 268.372 601.641 268.372C610.922 268.217 612.624 268.681 614.635 271.466C617.883 276.57 613.861 279.819 604.116 279.819C580.758 279.819 554.461 308.9 541.776 348.81C535.743 367.527 532.804 380.521 532.804 387.018C532.959 391.813 532.186 393.206 529.092 394.598C526.153 395.99 524.761 395.835 522.75 393.979C517.8 389.648 509.601 386.245 506.198 387.173C504.496 387.637 492.276 398.465 479.127 411.15L455.305 434.353L459.482 439.148C461.648 441.778 463.504 445.336 463.504 446.883C463.504 455.7 454.996 463.898 445.56 463.898C439.063 463.898 434.732 468.694 437.052 473.025C438.135 474.727 440.765 476.738 443.085 477.202C453.14 479.677 458.708 486.947 458.863 497.466C458.863 500.714 459.018 505.974 459.173 509.222C459.482 517.885 454.841 521.907 444.477 521.907C440.146 521.907 435.041 521.443 433.34 520.669C430.4 519.741 430.091 520.05 430.71 524.846C431.019 527.785 430.246 532.426 429.008 535.21C427.771 538.149 426.224 542.944 425.76 546.038C424.677 552.535 421.274 556.248 409.363 564.137C403.639 567.849 399.153 569.551 395.905 569.551C391.419 569.396 390.8 569.86 390.8 573.263C390.8 575.584 392.347 578.368 394.667 580.224C397.606 582.545 398.535 584.71 398.535 589.351C398.535 596.003 398.535 596.003 413.849 597.704C421.428 598.478 422.047 598.323 421.119 595.848C417.407 586.257 419.263 575.893 425.605 570.943C427.616 569.396 429.936 565.374 430.865 561.971C433.958 550.369 443.549 545.11 453.449 549.751C456.388 551.298 459.173 552.226 459.482 551.916C459.637 551.607 461.338 548.668 463.04 545.574C466.288 540.005 466.288 539.851 463.349 534.127C459.791 527.166 459.637 518.813 462.73 507.211C466.134 494.372 473.868 489.731 480.52 496.383C482.376 498.239 484.387 499.167 485.315 498.549C491.193 494.991 511.612 509.532 513.932 518.813C515.325 524.382 511.148 532.271 505.579 535.21C503.259 536.447 498.773 539.387 495.524 541.862L489.801 546.502L505.579 553.154C514.242 556.866 521.822 559.805 522.286 559.805C522.75 559.805 525.843 555.165 529.247 549.441C532.495 543.563 540.075 531.343 545.798 521.907C551.522 512.625 555.853 504.582 555.08 503.963C553.842 502.725 520.12 489.422 487.481 477.047C474.796 472.252 463.504 467.147 462.421 465.909C459.637 462.352 462.73 457.711 467.526 457.711C470.465 457.711 477.116 452.297 494.132 435.9C513.932 417.028 517.49 414.243 521.203 414.862C523.523 415.171 526.153 414.553 527.081 413.315C529.401 410.531 536.053 410.686 537.136 413.625C537.6 414.862 536.981 425.845 535.589 437.911C534.351 450.131 533.114 464.827 532.804 470.55L532.34 481.224L548.583 488.03C565.753 495.455 570.239 498.394 570.239 502.571C570.239 503.963 564.361 514.482 557.4 526.083C535.434 561.662 533.887 564.446 535.898 567.695C539.611 573.573 537.6 577.595 519.192 600.798C509.137 613.482 500.939 624.001 501.093 624.156C501.248 624.156 508.209 623.537 516.562 622.609L531.722 620.908L540.848 601.571C545.953 590.898 550.13 581.307 550.13 580.379C550.13 579.296 551.831 578.059 553.687 577.44C557.864 576.512 562.659 578.368 606.591 598.323C623.452 606.057 637.993 612.4 638.612 612.4C642.479 612.4 637.683 608.532 620.204 597.24C609.221 590.434 599.166 584.246 597.774 583.782C596.381 583.163 593.597 583.937 591.431 585.174C589.42 586.567 586.481 587.34 585.089 586.721C582.305 585.638 581.686 578.368 584.316 575.738C588.183 571.871 601.486 547.43 604.425 538.613C606.127 533.199 608.293 528.404 609.066 527.94C609.994 527.476 605.508 523.608 599.166 519.586C585.244 510.305 571.167 495.61 564.516 483.235C561.886 478.13 557.4 466.838 554.77 458.175C549.356 441.005 549.665 437.601 557.245 437.601C560.339 437.601 561.267 439.148 564.825 451.059C571.786 473.489 577.355 483.389 590.349 496.383C603.807 509.841 617.883 518.04 631.341 520.36C639.849 521.907 640.622 522.371 641.087 526.083C641.551 530.569 640.158 531.343 629.794 532.271L625.154 532.735L623.916 546.657C623.297 555.01 623.452 563.518 624.38 568.004C625.154 572.026 625.927 578.059 625.927 581.153C625.927 586.876 626.391 587.185 640.158 595.848L654.235 604.665L663.671 595.693C668.931 590.898 676.201 583.782 680.068 580.224C683.935 576.512 691.979 571.098 698.012 568.159C703.89 565.374 713.172 559.187 718.431 554.701C731.889 543.099 762.672 528.558 768.705 530.879C770.252 531.497 771.334 533.508 771.334 535.829C771.334 539.077 770.097 540.315 765.611 542.171C747.822 549.441 733.9 557.176 725.701 564.291C720.597 568.777 711.625 574.81 705.592 577.749C698.012 581.617 689.195 588.423 676.51 600.179C663.052 612.554 657.019 617.04 654.08 617.195C651.296 617.195 648.357 619.051 645.573 622.609C643.097 625.548 641.705 627.869 642.479 627.869C643.252 627.869 654.699 625.548 667.848 622.609C680.996 619.67 695.382 616.731 699.868 616.112C706.211 615.339 708.376 614.256 709.459 611.781C712.243 604.82 726.165 593.528 757.877 572.335C780.77 557.021 789.897 552.226 796.085 552.071C798.25 552.071 801.189 550.988 802.736 549.751C805.521 547.74 805.366 547.585 800.88 545.265C798.405 543.873 792.217 541.707 787.422 540.469C776.903 537.84 775.511 536.602 776.285 531.807C776.749 528.404 777.367 528.094 784.638 528.404C788.814 528.558 795.775 530.105 799.952 531.961L807.377 535.21L803.2 530.105C794.383 519.277 784.328 502.725 778.605 489.577C773.191 477.047 770.252 467.147 756.484 415.945C754.319 407.901 749.523 393.36 745.656 383.77C741.789 374.179 738.85 365.052 739.159 363.66C739.469 362.113 741.325 360.876 743.8 360.566C747.512 360.102 748.441 361.03 752.462 369.074C758.65 381.295 765.302 401.249 772.881 430.64C784.947 477.356 792.372 495.3 808.924 518.194C822.382 536.757 825.166 539.851 833.674 544.801C846.359 552.226 876.213 584.092 882.092 596.467C884.876 602.5 885.185 602.5 891.992 602.036C901.273 601.262 907.306 605.129 913.958 616.112C916.742 620.753 921.847 628.487 925.25 633.283C931.901 642.719 932.365 644.73 935.305 678.606C936.851 695.622 936.697 696.241 932.984 703.666C930.819 707.843 929.117 713.411 929.117 715.886C929.117 720.991 923.084 729.19 918.134 730.737C915.35 731.665 915.659 732.438 921.847 739.244C931.283 749.763 932.675 755.951 932.83 788.59L932.984 815.815L928.344 815.815C923.858 815.815 923.703 815.506 922.62 807.307C922.156 802.667 921.692 790.601 921.537 780.546C921.383 758.426 919.836 754.249 907.615 742.029C900.809 735.377 897.251 730.272 894.003 722.383L889.671 711.71L882.71 710.936C878.843 710.472 875.285 710.627 874.667 711.091C874.203 711.71 870.799 718.671 867.396 726.56L861.209 740.946L868.17 757.034C871.882 765.851 874.976 774.049 874.976 775.132C874.976 776.37 870.026 782.093 863.993 787.971C857.96 794.004 851.309 802.357 849.143 806.534C838.16 828.036 809.543 860.211 796.394 865.78C788.505 869.183 768.55 872.277 754.628 872.277C748.595 872.277 746.584 872.896 747.048 874.288C747.358 875.216 749.369 875.989 751.689 875.68C754.628 875.371 756.948 876.453 759.733 879.392C764.992 885.116 764.838 892.541 758.959 903.06C755.402 909.402 754.319 913.424 754.319 919.612C754.319 926.108 753.545 928.738 750.297 932.451C743.336 940.804 734.983 936.782 739.933 927.501C741.17 925.026 741.789 922.705 741.48 922.396C741.015 921.932 736.375 924.716 730.961 928.429C719.359 936.473 714.873 938.174 711.779 935.699C706.984 931.677 709.459 928.274 724.773 917.91C733.126 912.341 741.634 906.154 743.491 904.452C746.739 901.358 751.225 892.696 751.225 889.447C751.225 887.127 743.645 890.53 738.85 895.016C732.662 900.43 701.415 918.838 698.94 918.374C692.443 917.137 692.907 909.093 699.559 905.535C710.232 899.811 725.856 889.911 730.342 885.889C735.137 881.713 737.458 876.917 734.828 876.917C734.209 876.917 721.061 881.094 705.282 886.199C678.676 894.861 676.51 895.325 669.704 893.933C664.754 892.696 662.124 892.696 660.887 893.933C656.865 897.955 650.058 893.314 651.915 887.746C652.379 886.508 657.174 880.011 662.743 873.36C672.798 860.984 676.974 854.488 676.974 850.93C676.974 849.383 676.201 849.383 673.881 850.62C669.085 853.095 625.927 885.889 618.966 892.232C615.563 895.325 609.53 900.275 605.508 903.06C599.321 907.546 598.083 909.247 598.083 913.269C598.083 916.208 596.846 919.302 594.989 921.004C592.669 923.169 592.05 925.026 592.824 928.738C594.68 938.793 584.935 939.876 580.294 930.13C577.509 924.098 578.128 920.385 582.614 916.363C584.316 914.816 585.708 912.032 585.708 910.33C585.708 908.474 587.1 904.761 588.956 901.822C590.658 899.038 591.741 896.254 591.277 895.944C590.813 895.48 587.255 897.491 583.233 900.275C574.261 906.927 569.62 917.291 572.095 925.49C573.023 928.429 573.333 931.987 572.714 933.379C571.322 937.401 565.289 935.544 561.577 929.976L558.173 925.026L549.511 931.059C539.765 937.865 536.981 938.484 534.97 934.616ZM129.376 914.816C133.862 912.496 134.017 912.032 133.862 901.204C133.862 895.171 133.243 886.663 132.625 882.641C131.542 875.835 131.696 874.906 135.1 872.277C139.276 869.028 144.69 866.863 145.773 868.1C146.237 868.564 147.32 873.978 148.248 880.166L149.95 891.303L157.375 883.414C165.883 874.597 166.192 873.514 163.098 852.941L161.397 840.411L166.037 833.45C168.512 829.737 171.142 825.87 171.606 824.787C172.38 823.704 169.131 820.765 163.098 817.208C147.475 807.772 125.509 791.529 125.818 789.673C127.829 778.999 129.995 773.276 132.006 773.276C133.243 773.276 138.967 777.143 144.536 781.784C150.259 786.425 155.209 790.292 155.828 790.292C156.911 790.292 166.501 766.315 166.501 763.685C166.501 762.757 163.717 759.663 160.314 756.724C153.043 750.382 152.579 746.824 158.458 743.112C160.778 741.565 165.883 737.543 169.905 734.294C175.009 729.963 178.103 728.416 180.269 729.19C183.208 730.118 191.561 738.471 199.295 748.526C201.616 751.465 203.627 753.166 203.627 752.084C203.627 750.073 189.705 732.438 184.6 727.952C178.877 722.847 167.584 727.643 148.712 743.112L144.072 746.979L153.198 756.106L162.17 765.232L159.076 774.204C157.375 779.154 155.364 783.485 154.59 783.64C153.972 783.949 148.558 780.237 142.679 775.596C136.801 770.956 131.542 767.088 130.923 767.088C129.531 767.088 127.52 772.038 123.653 784.723L120.868 793.85L124.735 796.325C126.901 797.717 132.934 802.048 138.193 806.07C143.453 810.247 152.425 815.97 157.839 819.064L168.048 824.633L163.253 831.594L158.458 838.555L159.54 856.344C160.469 871.967 160.314 874.288 157.839 877.072C153.198 882.177 151.187 880.63 150.104 870.73C149.486 865.625 148.558 861.449 147.784 861.449C147.011 861.449 142.525 864.078 137.884 867.172L129.221 873.05L129.531 891.613C129.685 908.783 129.531 910.176 126.437 912.186C123.498 914.197 121.951 917.137 123.962 917.137C124.581 917.137 126.901 916.054 129.376 914.816ZM340.99 897.336C339.134 892.386 319.953 869.338 317.787 869.183C316.24 869.183 311.445 867.791 307.114 866.089C302.782 864.233 298.915 863.15 298.606 863.46C298.296 863.769 304.484 871.813 312.218 881.249L326.45 898.574L334.029 898.574C338.206 898.574 341.3 897.955 340.99 897.336ZM611.541 883.105C616.182 878.774 624.38 872.122 629.64 868.1C634.744 864.233 639.694 860.366 640.468 859.747C641.86 858.509 629.64 831.903 617.11 808.7C612.624 800.501 608.911 791.993 608.911 789.828C608.911 787.507 610.922 783.485 613.552 780.546C616.182 777.453 617.574 774.668 616.8 773.895C616.027 773.121 613.861 767.243 612.005 760.901C610.149 754.559 608.293 748.835 607.828 748.216C607.519 747.598 603.652 750.073 599.166 753.63C594.68 757.343 588.802 761.21 586.172 762.293L581.377 764.304L585.708 780.701C596.846 822.931 607.674 862.222 608.293 863.305C608.757 864.078 608.602 865.935 608.138 867.636C607.055 871.194 600.867 871.813 598.238 868.564C597.31 867.481 593.288 854.797 589.42 840.411C578.902 801.429 573.488 782.248 572.714 781.474C572.405 781.165 560.803 781.629 546.881 782.712C521.667 784.568 521.357 784.568 502.331 780.392C491.812 778.226 482.84 776.679 482.376 777.143C481.912 777.607 483.613 780.237 486.088 783.021C488.718 785.651 497.226 795.242 505.27 804.214C513.314 813.186 524.451 825.097 529.865 830.975C535.434 836.698 540.539 842.422 541.312 843.814C543.478 847.527 538.992 851.239 534.042 850.002C530.329 849.073 499.392 816.744 476.498 789.828C468.299 780.082 467.216 779.309 462.885 780.082C460.41 780.701 457.935 781.32 457.626 781.784C457.162 782.093 460.101 785.96 464.123 790.446C467.99 794.778 474.487 802.822 478.509 808.236C482.376 813.65 489.182 820.456 493.513 823.395C502.795 829.583 510.684 836.853 522.44 850.775L531.258 860.83L551.831 866.863C573.178 873.05 593.906 882.177 598.857 887.746C600.403 889.447 601.95 890.839 602.414 890.839C602.724 890.839 606.9 887.282 611.541 883.105ZM705.437 873.669L728.331 866.089L748.75 846.134C759.888 835.151 771.644 824.014 774.892 821.229C779.069 817.672 780.306 815.661 779.224 814.578C778.295 813.65 777.522 809.937 777.522 806.225L777.522 799.573L771.799 800.346C768.55 800.965 751.998 799.264 734.209 796.634C692.907 790.446 679.295 790.446 658.257 796.479C649.44 798.954 638.766 801.12 634.744 801.12C630.568 801.12 627.474 801.584 627.783 802.357C628.093 802.976 633.352 813.65 639.54 826.334C645.573 838.864 650.677 849.692 650.677 850.466C650.677 851.239 655.318 848.764 660.887 845.052C672.952 837.008 679.604 836.08 685.482 842.112C691.824 848.3 689.659 858.2 679.295 871.503C668.466 885.425 669.085 885.58 705.437 873.669ZM341.3 872.277C341.3 870.575 340.217 869.183 338.979 869.183C336.195 869.183 336.04 871.039 338.515 873.514C340.99 875.989 341.3 875.835 341.3 872.277ZM154.9 854.642C153.817 837.008 153.817 836.853 157.994 831.439L162.17 826.025L154.59 822.312C150.414 820.147 142.679 815.197 137.42 811.175C132.006 807.153 127.365 804.059 127.056 804.523C126.746 804.832 127.21 808.236 128.139 811.948C129.067 815.815 129.995 829.892 129.995 843.195L129.995 867.327L138.657 861.294C143.453 858.045 148.403 855.261 149.795 855.261C152.27 855.261 154.126 861.139 154.126 868.564C154.126 870.575 154.59 872.277 155.054 872.277C155.673 872.277 155.519 864.388 154.9 854.642ZM173.308 851.239C174.7 845.98 175.783 838.245 175.783 834.223L175.783 826.644L170.987 834.069C166.656 841.184 166.347 842.112 167.43 852.322C168.048 858.355 168.976 862.686 169.75 861.913C170.369 861.294 172.07 856.344 173.308 851.239ZM776.903 858.2C783.555 857.272 790.825 855.57 793.146 854.488C799.643 851.084 825.785 822.467 832.127 811.793L837.851 801.893L828.26 800.811C823.001 800.192 818.05 799.418 817.122 799.109C816.194 798.645 801.035 812.258 783.71 829.119L751.998 859.902L758.495 859.902C762.053 859.902 770.406 859.128 776.903 858.2ZM358.47 854.333C362.492 850.775 362.492 845.516 358.47 846.753C350.272 849.228 339.753 847.063 339.753 842.731C339.753 839.792 345.322 836.544 357.542 832.831C371.619 828.345 375.641 825.561 371.309 823.086C369.608 822.158 366.514 822.622 361.409 824.787C353.675 828.036 349.653 827.572 348.106 823.55C346.714 820.147 350.272 816.589 358.315 813.031C367.287 809.164 375.331 803.131 375.331 800.192C375.331 797.407 375.486 797.407 365.895 801.275C361.409 802.976 355.995 804.214 353.83 803.904C350.581 803.595 349.808 802.667 349.808 798.954C349.808 794.623 350.581 794.004 362.801 789.364C378.889 783.021 380.127 781.939 375.795 777.762C372.856 774.823 371.928 774.668 364.658 776.215C353.675 778.535 323.82 778.381 321.5 776.06C319.025 773.585 319.179 769.099 321.654 767.552C322.582 766.934 332.637 766.006 343.929 765.542C361.1 764.923 364.812 764.304 367.133 761.984C369.762 759.199 368.989 759.045 338.206 759.818C307.114 760.437 306.34 760.591 295.667 765.077C270.143 776.06 261.171 778.381 244.155 778.381C230.697 778.226 226.521 777.607 216.621 774.049L205.019 769.718L200.378 774.204C194.345 779.928 189.859 789.518 188.158 800.501C185.992 813.186 187.539 821.075 192.489 822.931C196.511 824.478 243.072 833.914 256.221 835.925C260.088 836.544 269.06 839.328 276.33 842.112C315.312 857.272 319.489 858.355 339.598 857.581C351.819 857.117 356.305 856.344 358.47 854.333ZM191.252 838.245C192.644 835.77 192.489 835.151 190.478 835.151C189.241 835.151 188.158 836.544 188.158 838.245C188.158 839.947 188.467 841.339 188.931 841.339C189.241 841.339 190.323 839.947 191.252 838.245ZM176.092 804.678C176.866 788.126 181.042 777.917 192.025 765.851C200.688 756.26 200.688 756.26 187.539 741.41L179.341 732.438L169.131 740.637L158.767 748.99L165.109 754.868C170.678 759.973 171.451 761.52 170.678 765.387C168.976 773.895 160.004 795.087 157.839 796.015C156.601 796.479 151.033 792.921 144.845 787.971C138.812 783.021 133.707 779.309 133.398 779.618C133.089 779.928 132.315 782.403 131.851 784.878C130.923 789.364 131.387 790.137 142.989 798.336C155.364 807.153 172.689 818.136 174.391 818.136C175.009 818.136 175.628 812.103 176.092 804.678ZM810.78 787.198C812.946 786.425 815.575 786.115 816.658 786.579C818.36 787.198 819.133 784.878 819.907 777.762C820.371 772.503 820.526 767.862 820.216 767.552C819.907 767.243 817.122 768.481 813.874 770.337C810.007 772.657 805.211 773.895 799.333 774.049C782.163 774.513 782.781 774.359 786.185 778.071C788.505 780.701 789.124 783.795 789.124 794.468L789.124 807.617L797.941 798.181C802.891 792.921 808.614 787.971 810.78 787.198ZM643.716 787.198C643.252 786.425 639.076 785.651 634.435 785.651C629.794 785.651 625.618 786.425 625.154 787.198C624.535 788.126 627.938 788.745 634.435 788.745C640.932 788.745 644.335 788.126 643.716 787.198ZM773.5 787.817C777.986 786.115 776.13 784.414 767.622 782.403C760.816 781.01 757.258 781.01 749.678 782.557C744.573 783.64 740.551 784.878 740.861 785.187C742.872 787.198 769.633 789.364 773.5 787.817ZM855.33 779.773C861.982 773.276 862.137 772.812 858.115 763.84L855.021 757.188L853.32 761.674C852.237 764.304 849.762 770.956 847.905 776.679C843.729 788.745 845.121 789.209 855.33 779.773ZM845.74 748.371C849.916 737.698 853.32 728.416 853.32 727.797C853.32 727.179 851.309 728.262 848.679 730.427C846.204 732.593 841.718 735.223 838.624 736.151L833.21 738.007L833.21 748.216C833.21 753.94 832.901 764.459 832.437 771.729L831.663 784.878L834.912 776.37C836.768 771.729 841.718 759.199 845.74 748.371ZM734.983 773.74C743.491 771.574 754.783 769.873 760.042 769.873C768.705 769.873 769.478 769.563 767.931 767.088C766.539 764.923 764.838 764.613 760.352 765.077C753.391 766.006 747.358 762.912 744.728 756.879C743.026 753.166 743.026 753.166 740.242 759.354C737.148 766.315 732.972 768.017 723.381 766.47C719.978 766.006 717.039 766.16 716.42 767.088C715.956 767.862 712.398 768.635 708.686 768.635C703.117 768.635 701.26 767.862 698.012 763.84C695.846 761.21 693.99 758.271 693.99 757.034C693.99 755.951 691.824 754.249 689.195 753.166C680.377 749.454 678.676 743.112 682.388 728.107C683.317 724.704 682.543 722.693 677.902 717.433C674.809 713.875 671.87 708.461 671.406 705.677C670.323 700.108 671.251 687.578 672.952 683.402C674.035 680.772 665.682 673.966 658.721 671.955C655.782 671.181 655.009 671.645 653.616 675.667C652.534 678.606 650.523 680.772 648.202 681.391C642.015 682.938 640.622 685.877 642.943 692.838C644.799 698.252 644.644 699.335 642.479 701.81C636.91 707.843 641.241 714.03 654.235 718.361C659.185 720.063 665.527 723.311 668.466 725.632C673.881 730.272 674.654 731.974 683.317 762.293L688.267 779.928L703.89 778.845C712.553 778.226 726.475 775.906 734.983 773.74ZM673.726 772.967C672.952 770.182 670.787 762.602 669.085 755.951L665.837 744.194L661.041 745.587C656.555 746.824 641.241 744.968 624.071 740.946C620.822 740.173 618.193 740.018 618.193 740.482C618.193 740.791 620.358 747.752 622.833 755.796C625.463 763.84 627.165 770.956 626.855 771.574C626.391 772.193 635.672 773.895 647.274 775.132C677.902 778.535 675.427 778.845 673.726 772.967ZM548.119 770.801C571.167 769.409 570.239 769.873 567.455 758.581C565.753 751.465 565.598 747.907 566.836 743.112C568.228 737.852 568.073 736.769 565.444 734.913C563.897 733.83 562.505 731.355 562.505 729.344C562.505 725.477 557.4 719.135 554.151 719.135C553.069 719.135 550.748 720.836 548.892 723.002C544.715 727.643 543.942 727.797 538.683 723.621C533.578 719.599 530.793 720.527 527.39 727.643C525.534 731.51 523.368 733.521 519.656 734.449C512.695 736.46 502.949 744.813 506.353 746.051C507.745 746.669 508.364 748.062 507.745 749.609C507.126 751.001 507.745 753.166 509.137 754.559C511.148 756.879 510.993 757.807 508.364 762.912L505.27 768.635L509.601 769.563C511.921 770.027 515.943 771.11 518.418 771.729C521.048 772.503 524.915 772.812 527.236 772.503C529.556 772.193 538.992 771.42 548.119 770.801ZM246.785 764.459C247.558 762.912 252.199 756.879 256.994 750.846C266.585 738.935 274.01 727.179 272.773 725.941C272.309 725.477 269.524 725.632 266.43 726.251C261.48 727.024 260.088 728.571 254.829 737.543C251.426 743.112 245.238 751.774 240.907 756.57C234.41 763.685 233.482 765.387 235.647 766.006C241.525 767.552 245.393 766.934 246.785 764.459ZM447.571 762.602L452.676 758.426L445.251 736.46C437.671 714.494 433.494 706.76 430.4 709.854C428.854 711.4 420.191 744.04 420.191 748.526C420.191 751.465 437.052 766.934 440.301 766.934C441.538 766.934 444.941 765.077 447.571 762.602ZM487.945 763.221C492.276 761.829 497.845 759.199 500.165 757.034L504.496 753.321L497.999 754.868C494.442 755.641 486.398 758.271 480.21 760.746C469.846 765.077 469.382 765.387 474.487 765.387C477.426 765.542 483.613 764.459 487.945 763.221ZM224.819 761.829C223.891 759.509 226.521 755.023 234.719 745.123C237.813 741.565 241.68 736.46 243.227 733.985L246.011 729.499L242.299 731.51C237.349 733.985 232.863 739.244 225.902 750.537C220.642 758.89 219.869 763.995 223.891 763.995C224.819 763.995 225.283 763.067 224.819 761.829ZM275.866 759.973C284.529 756.724 287.468 754.713 292.263 748.371L298.142 740.791L293.81 739.09C283.291 735.068 282.209 735.532 275.866 745.123C272.773 749.918 268.287 756.26 266.121 759.045C261.171 765.077 262.254 765.077 275.866 759.973ZM795.311 761.984C798.714 762.138 803.819 761.52 806.604 760.746C812.482 758.89 812.946 755.487 808.46 748.216C806.758 745.432 805.366 742.029 805.366 740.637C805.366 739.244 803.819 736.151 801.963 733.83C799.178 730.118 797.941 729.654 792.527 730.427C786.803 731.201 785.721 730.737 781.08 725.632C775.975 720.063 775.975 720.063 771.489 722.693C769.014 724.085 764.219 725.322 760.816 725.322C753.391 725.322 752.153 726.715 754.319 732.438C755.556 735.687 755.556 737.698 754.164 740.173C752.927 742.493 752.927 744.968 753.855 748.062C755.247 752.084 756.02 752.393 763.291 752.393C770.716 752.393 771.644 752.857 776.13 758.271C780.306 763.376 781.544 763.995 785.102 763.067C787.267 762.293 791.908 761.984 795.311 761.984ZM717.039 752.084C718.122 751.62 721.525 751.929 724.464 753.012C729.104 754.713 730.187 754.559 732.662 752.393C734.364 750.846 736.994 750.073 738.85 750.537C741.325 751.155 741.944 750.537 741.944 747.134C741.944 744.813 742.562 742.338 743.181 741.41C743.955 740.637 743.645 737.698 742.717 734.758C741.325 730.737 740.706 730.118 739.933 732.129C738.231 736.615 732.353 734.449 730.342 728.726C728.176 722.229 724.928 720.218 719.514 722.229C713.326 724.549 708.84 724.085 705.901 720.682C701.415 715.422 691.979 718.207 695.537 723.776C698.012 727.488 697.239 731.819 693.835 735.532C689.968 739.709 690.742 741.565 697.084 742.957C700.951 743.576 702.343 745.277 704.818 751.001C707.912 757.962 708.067 758.116 711.47 755.641C713.326 754.249 715.801 752.702 717.039 752.084ZM464.741 734.449L464.277 728.107L460.565 731.046L456.852 733.985L459.637 742.493C461.184 747.134 462.73 751.62 463.349 752.393C464.432 754.249 465.36 743.112 464.741 734.449ZM591.277 744.659C596.072 740.791 601.332 737.698 602.878 737.698C606.591 737.698 607.519 730.737 604.58 722.538L602.26 715.422L594.525 723.93C583.388 735.996 577.974 743.885 577.974 748.062C577.974 753.321 581.067 752.548 591.277 744.659ZM379.972 748.835C379.972 748.062 381.364 746.824 382.911 746.051C386.005 744.659 404.258 722.847 470.929 641.017C511.767 591.053 523.832 575.893 523.832 574.965C523.832 574.192 497.381 562.28 493.513 561.043C492.431 560.734 481.138 572.181 468.145 586.567L444.787 612.4L436.743 611.626C357.851 604.046 355.222 603.582 355.222 596.776C355.222 592.135 359.708 591.053 371.309 592.599C377.188 593.373 382.911 593.682 383.994 593.218C387.397 591.826 386.469 588.114 382.447 587.031C377.961 585.948 376.259 582.235 378.58 578.213C382.138 571.407 375.795 565.065 366.978 566.612C362.956 567.385 361.255 566.766 358.315 563.673C353.365 558.259 345.322 558.413 339.598 563.827C337.278 566.148 333.101 568.159 330.317 568.468C323.665 569.241 318.251 575.274 319.334 580.688C320.107 585.484 319.953 585.329 334.803 587.649C347.797 589.815 353.984 593.528 350.736 597.55C347.797 601.107 339.753 600.643 308.815 595.384C278.651 590.124 251.89 581.926 223.736 569.241C213.991 564.91 205.947 561.662 205.947 561.816C205.792 561.971 206.566 567.695 207.649 574.501C216.002 624.156 229.15 684.021 233.172 690.672C235.183 694.075 236.111 698.407 236.111 705.368C236.111 710.782 236.73 716.041 237.349 717.124C238.586 719.135 250.343 718.671 256.376 716.35C258.541 715.422 263.801 714.185 267.977 713.721C272.154 713.102 276.795 711.865 278.341 711.091C279.888 710.318 282.363 710.008 283.91 710.627C287.468 711.71 290.407 717.897 288.551 720.836C286.385 724.24 286.849 725.013 291.954 726.096C300.307 727.952 313.301 734.449 314.848 737.543C317.014 741.565 317.014 741.719 313.61 744.968C310.671 747.598 311.754 747.752 341.3 747.288C361.1 746.824 373.011 747.288 374.867 748.371C378.27 750.382 379.972 750.537 379.972 748.835ZM484.696 746.205C487.635 744.968 493.049 743.885 496.453 743.885C501.403 743.885 502.331 743.421 500.939 742.029C497.535 738.626 498.928 733.521 504.496 728.571C507.59 725.941 511.303 723.776 512.85 723.776C518.264 723.776 517.336 721.61 507.59 710.782C497.845 700.108 495.215 694.385 499.701 694.385C500.939 694.385 505.889 698.871 510.529 704.439C515.325 710.008 519.656 714.494 520.275 714.34C522.131 714.03 521.357 712.483 514.551 701.346C508.364 691.291 507.126 687.578 509.601 686.032C511.767 684.794 513.623 686.96 520.429 698.716C526.617 709.08 530.02 712.483 530.02 707.997C530.02 706.914 525.843 697.014 520.739 686.032C511.303 665.613 509.756 660.353 513.468 660.353C514.706 660.353 520.275 670.253 526.153 683.247C532.031 695.777 538.064 707.224 539.765 708.771C544.097 712.638 546.572 709.854 543.323 704.904C541.931 702.738 539.147 696.086 537.136 690.053C534.042 680.927 533.733 678.761 535.434 677.369C536.981 675.977 537.909 676.286 539.147 678.761C541.158 682.319 548.119 701.655 548.892 705.522C549.201 707.533 549.975 707.843 551.676 706.76C553.533 705.522 553.533 702.738 550.903 684.33C548.119 663.911 548.428 658.961 552.605 661.591C554.461 662.673 559.411 692.528 559.411 702.429C559.411 705.677 560.339 708.307 561.577 708.771C563.278 709.39 563.433 706.914 562.814 695.003C562.195 682.474 562.505 679.999 564.825 677.369C566.372 675.667 569.002 674.275 570.703 674.275C576.891 674.275 584.161 670.717 584.161 667.624C584.161 665.922 588.028 661.127 592.978 656.641C613.088 638.697 629.021 622.609 627.938 621.526C627.165 620.908 621.441 618.278 615.099 615.493C608.757 612.709 593.906 606.057 582.15 600.643C570.548 595.229 560.648 590.743 560.339 590.743C559.411 590.743 547.036 616.422 547.036 618.123C547.036 619.051 551.522 619.051 558.173 618.278C574.261 616.267 585.708 617.195 587.874 620.443C591.431 626.167 586.172 628.023 560.339 630.189C531.722 632.819 509.137 635.139 497.535 636.995C490.265 638.078 488.409 639.315 482.531 645.812L475.724 653.392L476.498 670.408C476.962 679.844 477.426 701.191 477.426 718.052C477.426 734.758 477.735 748.526 478.199 748.526C478.663 748.526 481.602 747.443 484.696 746.205ZM820.835 740.482C820.835 738.007 820.371 737.543 819.133 738.78C818.205 739.709 817.896 741.255 818.36 742.184C820.061 744.813 820.835 744.194 820.835 740.482ZM657.638 733.212C655.627 729.808 620.977 722.074 618.502 724.394C616.491 726.56 621.286 728.416 635.982 731.201C653.771 734.758 658.876 735.223 657.638 733.212ZM820.835 718.052C820.835 714.185 816.04 707.379 811.244 704.439C808.769 703.047 806.294 702.119 805.985 702.583C804.593 703.975 808.614 716.66 812.018 721.919L815.421 726.869L818.205 723.621C819.597 721.765 820.835 719.29 820.835 718.052ZM842.027 721.146C848.06 717.124 853.01 700.882 848.988 698.407C848.369 698.097 844.038 699.18 839.398 701.036C833.519 703.511 830.89 705.368 831.044 707.224C831.044 708.616 831.199 713.411 831.354 717.743C831.663 725.013 831.818 725.477 835.221 724.394C837.077 723.776 840.171 722.383 842.027 721.146ZM757.103 713.102C762.672 713.566 763.6 712.947 771.025 704.749C775.511 699.799 779.069 694.694 779.069 693.302C779.069 691.91 778.605 691.291 778.141 691.755C776.13 693.766 771.489 689.589 771.025 685.567C770.561 681.546 770.097 681.236 763.6 681.7C756.02 682.164 752.462 679.535 753.855 674.43C754.937 670.253 752.153 669.325 744.883 671.181C739.623 672.574 737.922 672.419 734.673 670.408C730.961 667.933 730.651 667.933 727.248 671.181C722.453 675.667 716.575 674.894 715.956 669.48C715.647 666.541 716.729 664.375 720.132 661.436C724.154 658.188 724.464 657.414 721.989 656.795C720.132 656.331 718.895 654.011 718.122 649.68C717.193 643.337 717.039 643.337 713.79 645.658C711.779 646.895 708.995 647.978 707.293 647.978C704.509 647.978 704.509 648.133 707.757 651.691C713.945 658.188 708.84 666.077 701.26 662.055C693.371 657.878 691.515 645.658 697.857 639.47C699.868 637.305 702.807 635.603 704.509 635.603C706.056 635.603 708.067 634.83 708.995 633.901C711.779 631.117 721.37 631.581 724.773 634.675C728.64 638.233 730.497 647.205 728.486 652.464C726.939 656.95 726.011 656.641 746.584 657.723C757.567 658.342 761.125 659.58 763.445 663.911C764.683 666.077 767.777 668.088 771.799 669.17C777.522 670.717 778.605 670.563 782.627 667.159C785.102 665.149 788.041 663.447 789.278 663.447C790.516 663.447 791.444 663.292 791.444 662.983C791.444 661.9 779.224 619.825 778.76 619.361C777.986 618.742 728.022 624.311 708.686 627.095C699.404 628.487 680.842 632.045 667.693 634.984C654.544 637.923 639.849 640.708 635.208 641.326C627.165 642.255 625.772 643.183 611.85 655.558L597.155 668.861L602.105 679.689C604.735 685.567 608.447 695.158 610.458 701.036C612.933 708.771 614.48 711.4 616.646 711.4C618.038 711.4 621.286 711.865 623.761 712.329C628.093 713.102 628.247 712.947 628.711 706.45C628.866 702.738 629.021 695.777 629.021 690.827C628.866 681.236 628.093 682.474 641.241 670.408C642.169 669.634 644.49 666.85 646.501 664.375C649.44 660.817 651.296 660.044 656.401 660.044C662.743 660.198 674.19 664.839 676.356 668.242C678.057 671.027 680.068 666.541 680.068 660.198C680.068 654.011 683.007 650.453 687.184 651.381C688.731 651.691 692.753 656.177 696.156 661.436C700.487 667.933 703.271 670.717 704.973 670.253C710.232 668.861 711.625 673.502 709.459 685.258C707.912 693.921 707.912 697.633 709.459 703.047C710.542 706.76 712.243 709.854 713.172 710.008C714.1 710.008 718.431 710.008 722.762 709.854C729.723 709.699 731.27 710.163 735.601 714.494C738.231 717.124 740.397 720.372 740.397 721.61C740.397 723.157 742.562 721.765 745.656 718.361C750.297 713.411 751.844 712.793 757.103 713.102ZM459.637 717.279L465.051 713.721L465.051 692.683C465.051 681.081 464.587 671.336 464.123 670.717C463.194 669.789 440.301 696.86 440.301 698.871C440.301 699.644 441.693 701.346 443.24 702.738C444.941 704.285 447.726 708.925 449.427 713.102C451.283 717.279 453.14 720.682 453.449 720.682C453.913 720.682 456.698 719.135 459.637 717.279ZM914.886 718.826C918.134 715.577 916.897 714.494 910.554 714.494C903.903 714.494 903.903 714.494 905.295 718.207C906.378 721.146 912.256 721.455 914.886 718.826ZM590.813 710.163L598.238 702.583L594.989 693.766C591.277 684.021 586.481 680.308 583.078 684.639C581.995 686.032 579.366 687.114 577.2 687.114C572.714 687.114 572.714 687.424 575.034 699.799C576.736 709.235 580.139 717.588 582.305 717.588C582.924 717.588 586.791 714.185 590.813 710.163ZM795.466 713.411C790.516 688.352 794.538 683.556 812.636 691.91L820.68 695.622L821.608 691.136C822.846 685.877 819.133 680.463 814.493 680.463C811.089 680.463 803.819 677.214 803.819 675.667C803.819 671.491 791.444 674.12 787.113 679.38C785.256 681.546 785.411 682.319 788.196 685.258C792.836 690.363 792.372 698.561 786.958 705.058L782.627 710.318L785.875 713.721C787.731 715.732 790.671 717.279 792.682 717.433C795.93 717.588 796.239 716.969 795.466 713.411ZM694.299 707.224C697.857 706.141 697.239 686.496 693.371 679.071C690.278 673.347 689.349 673.811 685.792 683.247C680.996 695.313 683.162 711.4 689.04 709.08C690.432 708.461 692.753 707.688 694.299 707.224ZM870.799 683.866C871.109 678.606 870.954 678.452 860.281 673.966C850.226 669.789 803.046 652.619 801.653 652.619C801.344 652.619 801.499 654.32 801.963 656.331C803.2 660.663 811.554 666.85 819.752 669.48C826.868 671.955 833.21 679.225 833.21 685.258C833.21 690.672 834.757 690.827 842.491 686.496C850.999 681.7 855.176 683.247 859.352 692.683C861.054 696.86 862.601 701.655 862.756 703.202C862.91 707.688 870.49 689.744 870.799 683.866ZM922.156 698.407C924.322 695.158 924.476 692.374 922.929 677.988C920.3 650.453 919.217 645.658 914.267 638.697C911.792 635.139 907.306 628.333 904.367 623.537C900.809 617.814 897.715 614.565 895.55 614.256L892.146 613.792L895.55 621.681C899.262 630.344 898.179 634.365 892.301 635.294C889.671 635.758 888.124 634.056 884.567 626.786C877.296 612.245 870.026 599.715 866.932 596.621C864.148 593.837 863.684 593.837 848.369 597.704C839.862 600.025 829.497 603.428 825.63 605.439L818.515 608.996L825.476 612.09C829.343 613.637 834.138 615.648 836.304 616.267C846.359 619.361 867.087 631.117 868.015 634.211C869.098 637.305 869.871 637.459 885.34 636.995C899.571 636.376 901.892 636.686 903.439 639.161C905.604 642.564 903.129 646.741 898.025 648.133C896.014 648.752 887.97 649.216 880.081 649.37L865.849 649.525L864.457 654.63L863.22 659.58L872.501 660.817C877.76 661.436 887.815 661.745 895.085 661.436C910.554 660.663 912.101 660.972 912.101 665.767C912.101 671.491 908.389 673.192 895.395 673.192C883.329 673.347 883.329 673.347 884.876 676.905C886.887 681.236 888.589 681.855 900.036 683.092C911.018 684.175 916.897 688.042 914.267 692.374C912.72 694.694 910.245 695.158 896.632 695.158C885.804 695.158 880.39 695.777 880.081 697.014C879.617 698.097 882.556 699.18 888.434 699.799C893.384 700.263 898.489 701.036 899.726 701.191C900.964 701.5 906.068 701.81 910.864 701.964C918.598 702.119 920.145 701.655 922.156 698.407ZM853.165 650.453C856.104 638.387 855.949 638.078 842.646 632.045C835.994 628.951 823.619 624.156 815.266 621.526C802.118 617.195 796.085 615.029 791.289 612.864C790.671 612.554 790.825 614.72 791.444 617.504C795.157 632.819 796.703 637.305 799.024 638.542C800.416 639.315 810.161 642.873 820.835 646.431C831.508 650.144 842.337 654.011 844.812 655.094C851.309 657.878 851.154 658.033 853.165 650.453ZM750.142 609.77C755.092 608.996 756.33 608.068 758.959 602.19C760.506 598.323 762.981 594.92 764.373 594.456C765.766 593.837 775.047 595.848 784.947 598.787L803.046 604.201L809.233 600.334C818.979 594.146 829.962 589.815 842.955 586.876C849.452 585.484 855.176 583.628 855.64 583.009C856.723 581.153 833.21 557.949 826.713 554.391L820.99 551.452L816.658 554.855C810.625 559.805 800.725 564.446 796.085 564.446C790.516 564.446 743.8 594.92 729.569 607.759L724.154 612.554L734.209 611.626C739.778 611.162 746.894 610.234 750.142 609.77ZM457.162 580.843C468.299 568.468 469.537 566.766 467.526 564.601C465.669 562.745 464.432 562.745 461.184 564.137C455.305 566.921 451.747 566.457 449.272 562.59C447.262 559.496 446.643 559.341 444.322 561.198C442.93 562.435 441.847 565.529 441.847 569.087C441.847 574.81 439.218 578.368 433.804 580.379C429.472 581.926 430.246 589.815 435.35 595.075C440.301 600.489 438.135 601.726 457.162 580.843ZM307.268 578.059C307.268 575.274 308.66 570.634 310.517 567.695C313.301 563.054 313.61 560.424 313.146 546.966C312.682 533.818 312.218 531.343 309.589 529.486C306.804 527.321 306.495 527.476 305.412 531.343C304.793 533.663 305.103 536.912 305.876 538.458C308.196 542.944 306.031 550.215 301.235 553.773L296.904 556.866L299.843 565.529C301.39 570.324 302.628 575.738 302.628 577.595C302.628 579.451 303.092 581.462 303.71 581.926C305.876 584.246 307.268 582.699 307.268 578.059ZM288.86 569.86C287.004 562.435 285.457 559.496 282.982 558.413C277.723 555.938 278.187 549.287 283.756 548.049C286.076 547.585 289.634 546.502 291.645 545.729C295.048 544.337 295.048 544.027 292.727 541.398C289.943 538.304 289.479 532.58 291.799 531.188C295.667 528.868 292.882 527.166 286.695 528.094C281.59 528.868 279.579 528.558 278.032 526.702C274.938 522.99 273.546 523.608 270.298 530.26C268.596 533.508 265.348 537.685 263.027 539.232C257.458 543.408 259.315 546.502 266.585 545.11C275.557 543.408 279.27 549.132 273.237 555.165C268.441 559.96 259.005 559.341 252.818 553.773C248.641 550.06 247.713 548.204 247.713 542.79C247.713 537.066 248.641 535.519 253.591 531.343C256.685 528.713 259.315 525.774 259.315 524.691C259.315 520.979 269.679 511.852 273.855 511.852C277.723 511.852 277.877 511.543 277.104 506.128C276.021 498.703 280.507 490.814 287.777 487.875C290.716 486.638 294.429 483.235 296.285 479.986C299.379 474.727 299.534 473.644 297.832 466.064C296.131 458.794 295.512 457.711 292.263 457.711C288.241 457.711 278.651 452.142 274.165 447.037C272.463 445.181 270.916 440.54 270.452 436.054C269.834 428.784 269.988 428.32 274.629 425.69C277.259 424.143 280.198 420.895 281.126 418.575C283.601 412.542 289.015 409.448 295.976 409.912C310.671 410.84 313.146 410.221 315.003 404.343C315.931 401.249 318.406 396.918 320.417 394.598L324.129 390.267L296.749 390.576C269.834 390.885 223.427 393.515 213.063 395.217L207.958 395.99L208.886 416.409C211.825 476.119 217.703 552.69 219.56 554.546C222.499 557.485 278.805 577.595 290.407 579.76C290.871 579.76 290.252 575.429 288.86 569.86ZM612.778 571.098C610.922 557.64 610.613 557.33 606.436 563.518C604.425 566.457 602.724 569.706 602.724 570.634C602.724 571.871 611.386 578.368 613.243 578.368C613.552 578.368 613.243 575.12 612.778 571.098ZM398.844 554.855C399.153 552.226 400.855 551.143 405.496 550.215C412.766 548.668 414.313 546.657 413.23 540.16C412.611 536.447 413.075 534.591 415.705 532.271C421.428 526.702 418.644 520.824 409.053 518.968C406.269 518.349 404.103 516.183 402.092 512.316C399.617 507.057 398.535 506.283 392.192 505.355C388.17 504.891 383.22 503.189 380.9 501.797C374.712 497.621 369.298 500.714 364.812 510.769C360.481 520.979 360.481 523.299 365.276 526.393C367.906 528.094 369.144 530.415 369.144 533.354C369.144 537.221 369.917 537.994 374.248 538.922C383.684 540.779 384.613 541.398 384.613 545.11C384.613 549.132 381.983 550.524 374.558 550.524C366.05 550.524 361.719 548.049 358.006 540.779C354.603 534.282 348.57 522.371 348.261 521.597C347.951 521.133 334.029 526.393 328.306 529.022L323.82 531.033L324.748 543.408C325.367 550.06 326.14 555.938 326.604 556.557C327.068 557.021 328.77 556.557 330.162 555.474C340.99 547.585 342.073 547.276 350.89 547.894C357.542 548.204 360.791 549.287 363.575 551.916C365.741 553.927 367.906 555.165 368.68 554.701C369.453 554.237 372.856 554.391 376.105 555.165C380.9 556.248 382.602 556.093 383.53 554.237C385.231 551.143 389.872 551.607 393.12 555.165C396.678 559.187 398.225 559.032 398.844 554.855ZM482.995 551.607L487.481 546.502L481.757 546.502C475.26 546.657 471.393 550.834 474.487 554.546C476.962 557.64 477.89 557.33 482.995 551.607ZM204.245 529.332C203.163 519.277 201.925 503.653 201.306 494.527C200.688 485.245 199.914 477.82 199.76 477.82C197.594 477.82 191.252 481.688 191.252 482.925C191.252 486.947 196.511 518.968 199.141 531.033C201.461 542.171 203.472 546.812 206.102 547.43C206.102 547.43 205.328 539.232 204.245 529.332ZM492.276 530.105C501.557 524.382 503.723 521.133 499.701 518.813C498.154 518.04 495.37 515.719 493.513 513.863C490.729 511.233 488.718 510.769 483.923 511.388C479.901 512.007 477.426 511.543 476.652 510.15C474.951 507.521 471.238 520.05 472.321 524.691C473.404 529.022 478.818 535.055 481.757 535.055C482.995 535.055 487.635 532.735 492.276 530.105ZM336.195 512.78C347.333 509.068 349.034 506.593 342.847 503.344C338.206 500.869 337.897 500.405 338.825 494.527L339.908 488.339L334.803 489.113C332.018 489.577 327.842 490.505 325.676 490.969C322.428 491.742 320.571 491.124 316.704 487.256C314.074 484.627 311.135 482.461 310.362 482.461C309.589 482.461 307.423 485.245 305.721 488.803C303.246 493.444 300.771 495.764 295.667 497.93C290.871 499.941 288.706 501.797 288.706 503.963C288.706 508.603 297.368 514.946 303.556 514.946C306.34 514.946 310.981 516.338 313.765 518.04C318.715 520.979 318.87 520.979 323.511 518.194C326.14 516.647 331.864 514.172 336.195 512.78ZM448.035 508.758C448.035 507.83 446.952 506.747 445.715 506.283C442.002 504.736 441.229 499.632 444.322 496.074C447.107 493.135 447.107 492.98 444.168 490.814C442.621 489.577 439.682 488.649 437.671 488.649C434.113 488.649 431.947 486.947 426.533 479.522C424.058 476.119 423.594 475.964 418.18 477.975C413.849 479.522 411.683 479.522 408.589 478.13C405.341 476.583 404.722 476.738 404.722 478.749C404.722 482.306 407.661 487.411 412.611 492.052C417.716 496.847 418.025 498.239 414.777 501.642C411.838 504.582 411.838 505.2 415.55 507.211C417.871 508.449 419.263 508.139 421.738 505.664L424.832 502.571L432.257 506.283C439.682 510.305 448.035 511.543 448.035 508.758ZM360.326 494.217C365.586 489.113 374.403 486.792 381.828 488.649C384.922 489.577 388.016 490.969 388.48 491.742C388.944 492.671 391.11 493.289 393.12 493.289C396.678 493.289 396.678 493.289 394.358 486.019C392.038 478.13 392.502 469.777 395.595 466.064C397.606 463.744 407.352 463.125 410.755 465.291C413.694 467.147 418.644 465.6 417.561 462.97C417.097 461.733 415.705 460.805 414.468 460.805C411.992 460.805 404.103 453.534 402.866 449.976C402.247 448.12 400.855 448.739 396.833 452.451C390.8 458.02 383.066 462.352 378.889 462.352C376.569 462.352 376.105 463.434 376.569 468.23C377.033 473.334 376.414 474.727 372.237 478.284C366.359 483.235 355.84 484.163 354.139 479.831C353.211 477.356 355.376 474.881 362.337 470.705C365.122 469.003 364.967 468.694 360.945 467.147C355.84 465.136 354.139 461.423 356.459 457.711C358.625 454.153 357.387 453.07 351.2 453.07C347.333 453.07 345.167 451.987 342.537 448.43C338.361 442.706 336.659 442.706 332.018 447.656C330.007 449.822 326.604 451.523 324.439 451.523C320.571 451.523 320.571 451.523 325.676 455.855C330.317 459.722 330.626 460.65 329.079 463.589C326.604 468.23 321.035 467.92 315.003 462.97C312.373 460.65 309.898 459.103 309.589 459.567C308.042 461.114 310.981 471.633 312.992 471.633C314.229 471.633 317.323 472.87 320.107 474.263C323.201 475.809 328.77 476.892 334.803 476.892C343.62 477.047 345.012 477.511 348.415 481.378C350.426 483.699 352.128 487.566 352.128 490.041C352.128 493.444 354.448 497.93 356.305 497.93C356.459 497.93 358.315 496.228 360.326 494.217ZM522.131 451.987C523.368 438.529 524.606 426.464 525.07 425.226C525.534 423.989 519.811 428.629 512.076 435.59C494.596 451.678 484.387 462.042 485.315 463.125C486.088 463.898 517.645 476.119 519.346 476.274C519.811 476.274 521.048 465.291 522.131 451.987ZM446.488 452.297C452.83 449.048 452.521 445.336 445.869 445.336C441.383 445.336 440.301 444.562 438.135 439.922C436.743 436.983 435.041 434.508 434.577 434.508C433.958 434.508 431.638 436.673 429.472 439.458C425.45 444.098 425.141 444.253 420.346 442.242C417.252 441.005 414.777 440.85 414.003 441.623C411.683 443.944 416.788 449.976 420.81 449.976C422.666 449.976 424.832 450.595 425.76 451.369C426.533 452.142 429.627 453.07 432.566 453.534C435.505 453.844 438.908 454.308 439.991 454.308C441.074 454.462 444.013 453.534 446.488 452.297ZM380.436 449.358C388.634 445.955 392.811 440.231 391.574 434.508C390.8 431.104 389.872 429.867 388.17 430.486C386.933 430.95 384.613 430.795 383.22 429.867C379.817 428.165 376.569 431.104 373.011 439.612C368.37 450.905 370.381 453.689 380.436 449.358ZM311.599 443.789C314.384 441.314 317.942 439.148 319.798 439.148C321.654 439.148 325.057 437.447 327.687 435.281C330.162 433.115 334.184 431.414 336.35 431.414C340.836 431.414 350.581 436.673 350.581 438.994C350.581 439.767 352.592 440.695 355.067 441.005C359.244 441.623 359.862 441.005 362.801 433.579C364.658 429.248 367.906 423.989 369.917 422.132C375.022 417.337 374.712 415.017 369.144 412.078C363.111 408.984 359.862 402.332 359.862 393.36C359.862 387.482 359.398 386.399 357.387 387.173C355.995 387.637 353.984 388.101 352.747 388.101C351.2 388.101 350.581 390.267 350.581 396.609C350.581 401.249 349.189 408.675 347.333 413.47C343.311 424.298 337.123 429.867 328.77 429.867C325.367 429.867 321.19 430.64 319.489 431.568C317.014 432.806 315.621 432.651 313.301 430.486C311.754 429.093 310.362 426.928 310.362 425.845C310.362 422.906 307.268 421.514 305.257 423.525C303.092 425.69 296.904 425.69 295.667 423.679C293.81 420.74 292.109 422.132 290.252 427.547C289.324 430.486 287.004 434.044 285.148 435.281L281.745 437.756L286.076 441.623C289.015 444.098 292.263 445.336 296.131 445.336C299.224 445.336 302.937 446.109 304.174 446.883C305.412 447.656 306.495 448.43 306.649 448.43C306.804 448.43 308.97 446.419 311.599 443.789ZM332.328 416.409C333.875 415.017 336.195 410.067 337.587 405.581C339.908 397.382 339.908 397.228 336.35 394.288C333.411 391.968 333.101 390.885 334.493 388.565C335.422 387.018 337.897 384.852 339.908 383.924C341.918 382.842 342.847 381.913 341.918 381.913C340.99 381.913 335.576 377.737 330.007 372.632C324.439 367.527 319.179 363.351 318.096 363.351C317.014 363.351 314.229 362.113 311.754 360.721C306.959 357.782 308.042 357.627 291.026 364.743C286.849 366.445 275.866 370.466 266.74 373.715C257.613 376.809 250.343 379.593 250.497 379.748C250.652 379.902 267.513 379.593 287.932 378.974C321.5 378.046 325.367 378.201 327.996 380.521C330.317 382.687 330.472 383.615 329.079 386.399C327.532 389.029 327.687 389.803 329.543 390.576C333.72 392.123 333.565 395.835 328.615 404.807C322.273 416.409 324.439 423.525 332.328 416.409ZM384.458 396.454C389.408 390.112 388.634 386.09 381.983 382.996C377.497 380.985 375.95 380.831 375.022 382.377C372.702 385.781 371 394.134 371.773 397.382C373.011 402.023 380.436 401.559 384.458 396.454ZM489.182 380.521C486.243 377.582 485.006 378.665 486.243 383.151C486.862 385.935 487.481 386.245 489.337 384.852C491.193 383.151 491.193 382.687 489.182 380.521Z" fill="#ffffff" fill-rule="nonzero" opacity="1" stroke="none" vectornator:layerName="path"/>
<path d="M652.224 707.688C652.224 703.047 657.793 695.932 661.505 695.932C666.146 695.932 666.146 699.953 661.815 705.832C656.865 712.329 652.224 713.257 652.224 707.688Z" fill="#ffffff" fill-rule="nonzero" opacity="1" stroke="none" vectornator:layerName="path"/>
<path d="M528.783 759.045C525.998 756.26 526.617 749.299 529.711 746.515C531.258 744.968 534.815 743.885 537.445 743.885C540.075 743.885 542.704 743.266 543.169 742.338C545.025 739.399 554.461 740.482 556.317 743.885C558.483 748.062 556.781 750.537 552.295 749.609C549.975 749.299 547.655 750.073 545.953 751.929C544.251 753.94 542.086 754.559 539.765 753.94C536.981 753.321 536.208 753.785 536.208 756.106C536.208 757.652 535.125 759.509 533.733 759.973C530.639 761.21 530.948 761.21 528.783 759.045Z" fill="#ffffff" fill-rule="nonzero" opacity="1" stroke="none" vectornator:layerName="path"/>
<path d="M779.069 747.907C775.511 746.669 773.5 744.813 773.191 742.648C772.727 739.709 773.345 739.244 777.522 739.244C784.174 739.244 791.444 743.266 791.444 746.979C791.444 750.537 787.422 750.846 779.069 747.907Z" fill="#ffffff" fill-rule="nonzero" opacity="1" stroke="none" vectornator:layerName="path"/>
<path d="M323.82 725.632C320.417 721.919 318.715 716.815 314.229 697.169C309.589 677.214 309.589 668.861 314.074 668.861C316.55 668.861 317.942 671.491 321.345 682.783C323.665 690.517 327.532 702.738 329.853 710.163C333.256 721.301 333.72 724.085 332.018 726.096C329.543 729.19 326.914 729.035 323.82 725.632Z" fill="#ffffff" fill-rule="nonzero" opacity="1" stroke="none" vectornator:layerName="path"/>
<path d="M359.244 725.477C356.769 722.693 356.769 722.229 359.708 716.505C367.906 700.108 381.519 688.507 381.519 697.943C381.519 701.964 370.072 723.776 366.359 726.56C363.111 729.035 362.337 728.88 359.244 725.477Z" fill="#ffffff" fill-rule="nonzero" opacity="1" stroke="none" vectornator:layerName="path"/>
<path d="M340.836 583.628C338.67 581.462 339.753 575.274 342.692 573.727C350.581 569.551 363.73 573.418 363.73 579.915C363.73 583.628 363.266 583.782 352.901 584.246C346.869 584.401 341.454 584.246 340.836 583.628Z" fill="#ffffff" fill-rule="nonzero" opacity="1" stroke="none" vectornator:layerName="path"/>
<path d="M481.912 690.363C479.282 687.269 481.757 682.938 486.707 682.319C491.348 681.546 493.513 684.021 492.276 688.816C491.193 693.457 485.315 694.385 481.912 690.363Z" fill="#ffffff" fill-rule="nonzero" opacity="1" stroke="none" vectornator:layerName="path"/>
<path d="M498.154 678.297C496.298 673.502 498.154 670.408 502.949 670.408C507.126 670.408 507.59 670.872 507.59 675.049C507.59 678.916 506.971 679.689 503.259 680.153C500.629 680.463 498.773 679.844 498.154 678.297Z" fill="#ffffff" fill-rule="nonzero" opacity="1" stroke="none" vectornator:layerName="path"/>
<path d="M524.142 670.872C520.584 667.314 523.059 660.353 527.854 660.353C530.02 660.353 534.661 664.53 534.661 666.541C534.661 668.552 530.02 672.728 527.854 672.728C526.926 672.728 525.225 671.955 524.142 670.872Z" fill="#ffffff" fill-rule="nonzero" opacity="1" stroke="none" vectornator:layerName="path"/>
<path d="M564.67 667.469C562.814 662.673 564.67 659.58 569.466 659.58C573.642 659.58 574.106 660.044 574.106 664.22C574.106 668.088 573.488 668.861 569.775 669.325C567.145 669.634 565.289 669.016 564.67 667.469Z" fill="#ffffff" fill-rule="nonzero" opacity="1" stroke="none" vectornator:layerName="path"/>
<path d="M484.696 662.519C482.531 660.353 483.613 654.32 486.552 652.773C490.574 650.608 494.906 654.011 494.132 658.961C493.823 661.591 492.585 662.828 489.801 663.138C487.635 663.447 485.315 663.138 484.696 662.519Z" fill="#ffffff" fill-rule="nonzero" opacity="1" stroke="none" vectornator:layerName="path"/>
<path d="M510.22 657.414C508.982 656.795 508.364 654.166 508.673 651.691C508.982 648.133 509.91 647.205 512.85 647.205C517.645 647.205 520.584 651.536 518.264 655.403C516.253 658.497 513.004 659.27 510.22 657.414Z" fill="#ffffff" fill-rule="nonzero" opacity="1" stroke="none" vectornator:layerName="path"/>
<path d="M549.356 652.619C548.737 650.762 549.201 648.442 550.13 647.205C554.306 642.1 562.195 646.431 560.184 652.619C559.566 654.784 557.864 655.713 554.77 655.713C551.676 655.713 549.975 654.784 549.356 652.619Z" fill="#ffffff" fill-rule="nonzero" opacity="1" stroke="none" vectornator:layerName="path"/>
<path d="M571.786 649.68C567.919 642.409 577.355 636.84 581.686 643.801C582.924 645.658 582.924 647.205 581.686 649.216C579.211 653.083 573.797 653.392 571.786 649.68Z" fill="#ffffff" fill-rule="nonzero" opacity="1" stroke="none" vectornator:layerName="path"/>
<path d="M753.545 699.18C751.998 697.788 739.778 694.23 736.53 694.23C735.756 694.23 733.126 694.694 730.961 695.158C725.083 696.705 723.381 691.6 728.331 687.578C736.839 680.772 764.838 690.827 759.733 699.025C758.495 701.036 755.402 701.036 753.545 699.18Z" fill="#ffffff" fill-rule="nonzero" opacity="1" stroke="none" vectornator:layerName="path"/>
<path d="M765.456 655.403C762.827 652.773 763.136 650.453 766.694 647.205C771.18 643.183 770.561 641.481 764.683 642.564C760.97 643.337 758.959 642.873 757.567 641.172C755.866 639.315 754.937 639.006 753.391 640.398C752.153 641.326 751.225 643.028 751.225 644.266C751.225 647.359 746.43 649.525 743.181 647.823C735.756 643.801 744.264 627.404 753.7 627.559C765.302 627.714 774.583 630.034 778.295 633.437C784.638 639.315 782.781 649.834 774.428 654.63C769.324 657.723 767.931 657.878 765.456 655.403Z" fill="#ffffff" fill-rule="nonzero" opacity="1" stroke="none" vectornator:layerName="path"/>
<path d="M228.222 522.835C223.272 518.04 222.189 515.719 222.189 510.924C222.189 507.675 223.272 503.963 224.819 502.261C226.675 500.25 227.294 497.002 226.985 490.505C226.675 482.925 227.139 481.224 230.388 478.13C232.399 476.119 236.885 474.108 240.133 473.644C243.382 473.18 248.486 471.014 251.271 468.848C254.055 466.683 258.232 465.136 260.552 465.136C281.126 465.755 284.065 466.373 288.86 471.014C292.418 474.417 293.346 476.583 293.037 480.141C292.418 486.483 288.087 486.947 282.363 481.533C277.877 477.202 277.723 477.202 273.237 479.831C268.596 482.616 263.491 481.688 262.099 477.82C261.79 476.892 259.16 478.284 256.221 480.76C252.354 484.008 249.105 485.4 245.083 485.555C241.99 485.555 239.05 486.174 238.586 486.947C237.968 487.721 238.432 492.052 239.515 496.383C241.371 504.427 241.371 504.582 237.194 507.83C233.018 511.233 233.018 511.388 235.802 513.863C237.504 515.41 240.443 516.957 242.454 517.266C248.177 518.349 250.652 521.752 248.641 525.619C247.249 528.094 245.393 528.868 240.443 528.868C235.183 528.868 233.172 527.94 228.222 522.835Z" fill="#ffffff" fill-rule="nonzero" opacity="1" stroke="none" vectornator:layerName="path"/>
<path d="M253.437 503.808C248.641 499.013 252.663 493.444 262.254 492.206C267.204 491.588 268.596 491.897 269.988 494.527C271.999 498.394 270.762 502.261 267.358 503.189C259.315 505.355 255.293 505.664 253.437 503.808Z" fill="#ffffff" fill-rule="nonzero" opacity="1" stroke="none" vectornator:layerName="path"/>
<path d="M393.739 532.58C392.192 530.724 390.027 530.26 384.613 530.879C375.486 531.807 373.784 531.033 373.784 525.929C373.784 522.835 374.867 521.133 377.652 519.896C386.469 515.874 399.463 518.968 401.164 525.465C402.866 532.271 397.606 537.221 393.739 532.58Z" fill="#ffffff" fill-rule="nonzero" opacity="1" stroke="none" vectornator:layerName="path"/>
<path d="M456.543 934.152C455.151 931.987 467.68 906.772 470.62 905.69C472.012 905.225 474.177 907.082 476.652 910.949C478.818 914.352 482.221 919.921 484.387 923.324C488.563 929.976 489.956 930.749 492.585 927.501C493.823 925.954 491.812 921.777 484.232 910.176L474.177 894.707L476.034 886.972C478.818 874.906 482.221 867.636 484.851 867.636C486.088 867.636 493.204 873.205 500.784 880.011C508.209 886.818 514.861 892.386 515.789 892.386C516.562 892.386 518.109 891.303 519.192 890.066C520.739 888.21 519.965 886.353 513.932 879.392C506.198 870.421 505.734 869.183 508.982 869.183C511.612 869.183 525.379 885.116 525.379 888.055C525.379 889.293 523.368 892.232 520.739 894.707L516.253 899.038L511.612 895.325C508.982 893.314 502.176 887.282 496.298 882.022L485.624 872.431L483.768 876.299C482.84 878.464 481.293 883.26 480.52 887.127C478.973 893.779 479.127 894.088 489.027 909.402C494.596 917.91 499.082 925.49 499.082 926.263C499.082 927.037 496.917 929.512 494.287 931.832L489.337 935.854L485.779 932.451C483.613 930.44 479.746 924.871 476.807 919.766L471.702 910.64L468.609 915.899C466.907 918.683 464.277 924.407 462.73 928.429C459.946 935.699 458.399 937.091 456.543 934.152Z" fill="#ffffff" fill-rule="nonzero" opacity="1" stroke="none" vectornator:layerName="path"/>
<path d="M474.641 931.832C472.321 928.738 470.774 927.81 470.31 929.202C469.382 931.213 465.051 931.832 465.051 929.821C465.051 927.346 470.001 921.777 472.012 921.777C474.641 921.777 479.282 930.285 478.663 933.843C478.354 935.854 477.426 935.39 474.641 931.832Z" fill="#ffffff" fill-rule="nonzero" opacity="1" stroke="none" vectornator:layerName="path"/>
<path d="M254.674 895.48C253.282 894.707 252.818 890.53 252.818 882.332C253.127 862.995 256.994 855.416 263.955 861.139C267.049 863.769 267.049 864.078 264.729 876.144C261.326 894.088 261.171 895.016 258.851 895.944C257.613 896.408 255.757 896.254 254.674 895.48Z" fill="#ffffff" fill-rule="nonzero" opacity="1" stroke="none" vectornator:layerName="path"/>
<path d="M216.002 878.619C216.002 875.525 220.333 869.647 229.769 859.592C235.957 852.941 241.216 852.013 244 856.963C245.547 860.056 244.619 861.294 234.41 870.885C222.808 881.867 216.002 884.652 216.002 878.619Z" fill="#ffffff" fill-rule="nonzero" opacity="1" stroke="none" vectornator:layerName="path"/>
<path d="M718.74 543.254C714.718 541.707 706.211 532.89 703.117 527.011C701.415 523.763 699.714 516.957 699.095 511.852C698.631 506.747 697.703 502.571 697.239 502.571C696.62 502.571 693.681 505.046 690.742 508.139C682.853 516.338 668.002 525.774 663.052 525.774C654.235 525.774 656.246 519.122 667.384 511.543C677.129 504.891 691.979 490.66 696.31 484.008C698.167 481.069 701.106 474.727 702.807 470.086C706.52 460.341 710.232 434.044 708.995 426.464C708.067 420.276 710.078 415.945 713.79 415.945C718.276 415.945 720.287 419.193 720.287 426.618C720.287 433.27 720.287 433.425 723.381 430.64C725.083 429.093 726.475 426.618 726.475 425.226C726.475 419.503 733.745 417.028 737.303 421.359C738.85 423.215 738.85 425.072 737.458 429.712C735.756 435.9 726.629 445.336 722.762 445.336C721.37 445.336 719.978 448.739 718.895 455.236C717.967 460.65 715.801 469.003 714.1 473.953C711.779 480.76 711.006 486.947 711.006 499.167C711.006 517.73 713.481 525.155 722.917 534.282C730.342 541.552 728.022 546.657 718.74 543.254Z" fill="#ffffff" fill-rule="nonzero" opacity="1" stroke="none" vectornator:layerName="path"/>
<path d="M613.397 490.814C612.314 489.577 609.53 487.411 607.055 486.174C602.878 484.008 600.867 477.82 604.271 477.82C605.199 477.82 608.602 476.119 611.85 473.953C618.966 469.158 633.507 466.528 642.943 468.23C646.81 469.003 652.534 468.848 655.937 468.075C660.423 466.838 662.124 466.992 663.052 468.694C665.218 471.942 646.655 489.422 638.921 491.588C629.64 494.217 615.872 493.753 613.397 490.814ZM639.694 481.224L645.263 478.903L640.622 477.666C635.672 476.274 620.049 478.439 617.729 480.76C612.469 486.019 627.783 486.328 639.694 481.224Z" fill="#ffffff" fill-rule="nonzero" opacity="1" stroke="none" vectornator:layerName="path"/>
<path d="M610.922 453.07C608.138 451.369 605.818 449.358 605.818 448.584C605.818 447.811 605.353 446.109 604.889 444.717C604.425 443.48 605.353 441.314 607.364 439.612C609.221 438.065 611.386 435.281 612.16 433.425C612.933 431.259 614.789 429.867 616.646 429.867C620.977 429.867 620.822 435.9 616.336 441.469C614.016 444.408 613.552 446.109 614.789 446.573C618.657 447.811 623.297 452.606 622.215 454.308C620.513 456.937 616.491 456.628 610.922 453.07Z" fill="#ffffff" fill-rule="nonzero" opacity="1" stroke="none" vectornator:layerName="path"/>
<path d="M564.052 427.083C564.052 421.668 574.57 414.398 582.614 414.398C588.802 414.398 598.083 418.265 598.083 420.895C597.928 423.37 588.338 428.32 583.388 428.32C581.377 428.32 578.592 426.773 577.355 424.917L574.88 421.514L571.477 424.762C565.753 429.867 564.052 430.331 564.052 427.083Z" fill="#ffffff" fill-rule="nonzero" opacity="1" stroke="none" vectornator:layerName="path"/>
<path d="M552.141 410.995C554.77 367.063 572.559 326.071 593.752 315.243C601.641 311.221 607.983 311.839 608.602 316.635C609.221 320.966 606.436 324.679 602.724 324.679C601.332 324.679 597 327.463 593.133 330.866C581.995 340.611 573.642 359.019 566.527 389.184L564.361 398.62L569.002 397.073C578.902 393.67 594.68 399.084 590.349 404.498C589.111 405.89 587.1 405.89 582.46 404.807C577.664 403.57 574.88 403.725 569.466 405.735C562.505 408.52 561.886 409.293 560.03 419.503C559.256 424.298 558.483 425.226 555.08 425.226L551.212 425.226L552.141 410.995Z" fill="#ffffff" fill-rule="nonzero" opacity="1" stroke="none" vectornator:layerName="path"/>
<path d="M632.269 413.934C628.402 409.139 643.562 397.382 653.462 397.382C659.649 397.382 672.488 402.023 673.416 404.653C674.654 408.056 673.571 408.21 666.92 406.045C660.887 403.879 660.732 403.879 658.876 408.365C657.329 412.078 656.091 412.851 651.76 412.851C648.821 412.851 645.573 411.768 644.49 410.531C642.633 408.365 642.015 408.52 638.302 412.078C634.744 415.481 633.816 415.636 632.269 413.934Z" fill="#ffffff" fill-rule="nonzero" opacity="1" stroke="none" vectornator:layerName="path"/>
<path d="M717.657 410.221C716.575 409.757 713.017 404.807 709.923 399.239C702.189 385.007 696.31 376.499 687.493 366.135C679.759 357.009 678.676 352.368 684.09 350.357C687.493 348.965 690.896 351.285 698.167 359.793C711.315 375.416 723.381 397.846 723.381 406.509C723.381 409.603 720.751 411.304 717.657 410.221Z" fill="#ffffff" fill-rule="nonzero" opacity="1" stroke="none" vectornator:layerName="path"/>
<path d="M687.338 396.764C684.245 395.526 679.14 392.742 676.046 390.421C671.251 386.863 668.776 386.09 660.113 385.935C650.987 385.781 648.202 386.554 637.993 391.659C624.69 398.156 623.607 398.465 622.06 394.753C620.049 389.338 638.457 378.974 652.379 377.737L661.196 376.809L646.037 357.318C637.683 346.644 627.938 334.733 624.535 331.175C620.977 327.463 618.193 323.596 618.193 322.513C618.193 319.883 621.441 316.944 624.38 316.944C627.783 316.944 640.158 330.247 655.782 350.357C672.334 371.704 689.504 388.101 695.537 388.101C701.415 388.101 702.962 392.587 698.631 396.145C694.609 399.393 694.918 399.393 687.338 396.764Z" fill="#ffffff" fill-rule="nonzero" opacity="1" stroke="none" vectornator:layerName="path"/>
<path d="M649.594 394.753C651.915 394.443 655.318 394.443 657.329 394.753C659.185 395.062 657.329 395.371 652.998 395.371C648.821 395.371 647.119 395.062 649.594 394.753Z" fill="#ffffff" fill-rule="nonzero" opacity="1" stroke="none" vectornator:layerName="path"/>
<path d="M731.889 340.611C721.061 320.966 713.79 309.674 707.757 302.713C694.145 287.244 675.427 279.355 646.965 277.189C635.208 276.261 631.341 275.333 630.104 273.322C628.866 271.466 629.021 270.073 630.413 268.372C632.115 266.516 635.518 265.897 646.346 265.897C685.328 265.897 714.409 283.067 730.961 315.861C736.065 325.761 737.922 331.175 737.922 336.59C738.076 345.097 735.292 346.954 731.889 340.611Z" fill="#ffffff" fill-rule="nonzero" opacity="1" stroke="none" vectornator:layerName="path"/>
<path d="M431.019 306.116C428.854 305.497 423.749 304.878 419.727 304.724C415.705 304.569 410.291 303.486 407.816 302.249C402.092 299.31 401.474 293.741 406.733 293.741C408.744 293.741 410.91 294.36 411.838 295.133C412.611 295.906 417.407 296.989 422.511 297.453C445.715 299.774 448.808 300.547 448.808 303.796C448.808 306.425 447.726 306.889 441.847 307.199C437.98 307.353 433.185 306.889 431.019 306.116Z" fill="#ffffff" fill-rule="nonzero" opacity="1" stroke="none" vectornator:layerName="path"/>
<path d="M429.627 277.653C427.616 275.333 427.616 275.178 435.66 269.145L439.527 266.052L434.577 260.947C431.793 258.008 429.472 254.605 429.472 253.212C429.472 249.345 433.804 248.572 437.207 251.975C438.754 253.522 441.847 255.997 444.013 257.389C446.179 258.936 448.035 261.411 448.035 263.112C448.035 268.062 443.549 275.023 438.754 277.498C433.185 280.438 431.947 280.438 429.627 277.653Z" fill="#ffffff" fill-rule="nonzero" opacity="1" stroke="none" vectornator:layerName="path"/>
<path d="M466.907 238.672C465.051 237.434 462.73 236.815 461.957 237.279C461.029 237.898 459.173 237.898 457.935 237.434C451.902 235.114 464.123 225.678 473.249 225.678C480.21 225.678 492.895 230.318 492.895 232.948C492.895 234.804 491.812 235.114 487.635 234.34C483.304 233.567 481.602 234.031 478.354 237.279C473.868 241.765 471.702 242.075 466.907 238.672Z" fill="#ffffff" fill-rule="nonzero" opacity="1" stroke="none" vectornator:layerName="path"/>
<path d="M408.899 233.103C406.733 229.7 406.578 229.7 403.639 232.329C399.308 236.197 393.12 235.733 389.563 231.092C387.706 228.772 384.922 227.225 382.447 227.225C377.961 227.225 377.033 225.059 380.9 223.512C382.292 223.048 388.48 222.584 394.667 222.584C404.567 222.584 406.578 223.048 410.755 226.606C415.705 230.628 417.252 236.506 413.385 236.506C412.302 236.506 410.291 234.959 408.899 233.103Z" fill="#ffffff" fill-rule="nonzero" opacity="1" stroke="none" vectornator:layerName="path"/>
<path d="M453.449 219.49C451.593 216.396 455.769 213.612 467.835 209.59C482.84 204.485 486.862 204.64 492.74 209.59C500.01 215.623 498.928 217.015 487.79 215.778C478.818 214.85 474.796 215.468 457.935 220.418C456.079 220.882 454.068 220.573 453.449 219.49Z" fill="#ffffff" fill-rule="nonzero" opacity="1" stroke="none" vectornator:layerName="path"/>
<path d="M403.021 214.076C393.275 211.601 387.706 210.982 381.673 211.756C371.619 212.993 370.227 211.137 376.878 205.104C381.364 201.082 382.602 200.773 388.944 201.701C397.761 203.093 416.478 209.899 418.644 212.684C420.346 214.695 419.572 218.098 417.407 217.789C416.788 217.634 410.446 215.932 403.021 214.076Z" fill="#ffffff" fill-rule="nonzero" opacity="1" stroke="none" vectornator:layerName="path"/>
<path d="M437.361 176.641C431.174 169.216 431.329 163.338 437.516 162.565C440.919 162.101 442.466 163.183 445.715 168.288C453.913 180.509 446.488 187.779 437.361 176.641Z" fill="#ffffff" fill-rule="nonzero" opacity="1" stroke="none" vectornator:layerName="path"/>
<path d="M456.233 179.89C455.769 178.498 455.924 174.785 456.698 171.691C457.935 166.896 458.708 166.123 462.73 166.123C466.907 166.123 467.371 166.741 467.835 171.227C468.454 177.105 464.741 182.365 460.101 182.365C458.554 182.365 456.852 181.282 456.233 179.89Z" fill="#ffffff" fill-rule="nonzero" opacity="1" stroke="none" vectornator:layerName="path"/>
<path d="M416.014 176.177C409.672 172.465 402.711 162.101 403.485 157.46C404.567 149.88 414.158 149.726 415.241 157.305C415.705 160.244 420.964 165.659 429.782 171.691C432.721 173.857 433.03 174.63 431.174 176.796C428.389 180.199 422.047 179.89 416.014 176.177Z" fill="#ffffff" fill-rule="nonzero" opacity="1" stroke="none" vectornator:layerName="path"/>
<path d="M475.415 178.188C472.94 175.868 474.796 170.918 480.829 162.874C486.088 155.913 487.945 154.521 491.193 154.83C499.701 155.758 494.751 169.216 482.995 176.332C477.735 179.58 476.962 179.735 475.415 178.188Z" fill="#ffffff" fill-rule="nonzero" opacity="1" stroke="none" vectornator:layerName="path"/>
<path d="M385.85 165.504C379.044 162.255 374.248 152.665 376.723 147.405C379.353 141.527 387.706 143.383 387.706 149.88C387.706 151.272 389.717 154.521 392.347 156.996C394.822 159.471 396.988 162.565 396.988 163.957C396.988 167.669 391.728 168.443 385.85 165.504Z" fill="#ffffff" fill-rule="nonzero" opacity="1" stroke="none" vectornator:layerName="path"/>
<path d="M502.021 109.042C495.679 102.855 489.337 95.8939 487.79 93.7282C486.398 91.5626 480.674 87.5407 475.26 84.911C464.896 79.8062 462.266 76.7125 465.205 73.1546C470.929 66.3483 486.862 74.7015 503.723 93.2642C516.098 106.722 520.429 114.766 517.49 118.324C516.562 119.561 515.325 120.489 514.706 120.489C514.242 120.489 508.518 115.385 502.021 109.042Z" fill="#ffffff" fill-rule="nonzero" opacity="1" stroke="none" vectornator:layerName="path"/>
<path d="M341.3 82.7453C340.217 81.3531 339.753 79.3422 340.217 78.1047C341.609 74.7015 353.211 71.9171 358.934 73.6187C362.956 74.7015 363.73 75.7843 363.73 79.4969C363.73 84.1375 363.73 84.1375 353.52 84.6016C345.786 84.911 342.847 84.4469 341.3 82.7453Z" fill="#ffffff" fill-rule="nonzero" opacity="1" stroke="none" vectornator:layerName="path"/>
<path d="M376.878 74.8562C371.773 68.6687 384.149 59.542 397.761 59.8514C410.91 60.0061 436.124 62.7905 442.93 64.6467C451.438 66.9671 456.852 72.3812 453.14 74.5468C451.438 75.6296 404.877 73.1546 399.772 71.7624C396.833 70.989 393.585 71.6077 389.253 73.9281C381.828 77.7953 379.508 77.95 376.878 74.8562Z" fill="#ffffff" fill-rule="nonzero" opacity="1" stroke="none" vectornator:layerName="path"/>
</g>
</svg>
