<?xml version="1.0" encoding="UTF-8" standalone="no"?>
<!DOCTYPE svg PUBLIC "-//W3C//DTD SVG 1.1//EN" "http://www.w3.org/Graphics/SVG/1.1/DTD/svg11.dtd">
<!-- Created with Vectornator (http://vectornator.io/) -->
<svg height="100%" stroke-miterlimit="10" style="fill-rule:nonzero;clip-rule:evenodd;stroke-linecap:round;stroke-linejoin:round;" version="1.1" viewBox="0 0 4134 4134" width="100%" xml:space="preserve" xmlns="http://www.w3.org/2000/svg" xmlns:vectornator="http://vectornator.io" xmlns:xlink="http://www.w3.org/1999/xlink">
<defs/>
<g id="Untitled" vectornator:layerName="Untitled">
<g opacity="1">
<path d="M2265.69 297.941C2227.36 303.915 2218.96 306.902 2210.26 317.427C2191.46 340.185 2205.42 375.032 2235.06 379.726C2238.34 380.295 2246.32 379.726 2253.58 378.304C2273.53 374.748 2294.19 372.046 2302.46 371.903C2309.3 371.903 2310.01 372.188 2311.58 375.744C2314.14 381.86 2322.55 391.674 2328.25 395.372C2336.09 400.493 2345.49 402.911 2369.86 406.04C2381.97 407.604 2396.79 410.022 2402.63 411.587C2413.75 414.432 2436.69 423.961 2463.76 437.047C2483 446.292 2490.41 447.572 2498.96 443.305C2506.94 439.18 2511.64 433.064 2513.78 423.961C2518.91 401.061 2497.39 371.05 2462.34 351.706C2444.38 341.892 2412.04 332.789 2384.96 329.944C2375.56 328.948 2375.13 328.664 2371.14 322.832C2363.3 311.453 2348.77 302.493 2330.67 297.799C2317.56 294.385 2288.35 294.385 2265.69 297.941Z" fill="#000000" fill-rule="nonzero" opacity="1" stroke="none"/>
<path d="M2044.12 306.617C2017.33 309.178 1994.39 317.712 1980.42 330.513C1973.58 336.771 1971.87 337.625 1962.75 339.047C1913.45 346.585 1872.55 370.054 1848.04 404.617C1824.53 437.758 1821.97 466.774 1841.63 478.722C1847.19 482.135 1859.44 482.278 1865.71 479.006C1868.14 477.726 1881.96 467.77 1896.35 456.675C1930.55 430.504 1930.41 430.646 1938.24 426.522C1950.64 420.263 1967.17 415.854 1986.69 413.863C2007.21 411.871 2019.61 405.755 2028.16 393.807C2034.14 385.131 2038.56 383.993 2063.35 383.993C2079.17 383.993 2084.87 384.562 2087.72 386.127C2103.82 395.23 2103.68 395.23 2115.36 395.23C2128.76 395.23 2135.31 392.527 2143.43 383.567C2150.13 376.17 2151.41 373.61 2153.12 364.507C2157.11 343.883 2143.43 324.112 2119.07 314.867C2099.4 307.471 2069.2 304.2 2044.12 306.617Z" fill="#000000" fill-rule="nonzero" opacity="1" stroke="none"/>
<path d="M2558.52 429.366C2545.7 433.491 2539.14 438.896 2533.44 450.132C2528.74 459.236 2528.74 473.743 2533.58 483.415C2538.29 492.803 2547.12 500.199 2557.24 503.328C2577.47 509.587 2586.16 517.267 2595.57 536.611C2602.12 549.697 2603.26 551.119 2626.49 573.735C2661.4 607.587 2672.8 622.237 2687.48 651.964C2692.04 661.067 2698.02 674.864 2700.87 682.687C2703.72 690.509 2707.28 699.612 2708.85 702.884C2717.12 720.805 2736.64 730.904 2753.88 726.068C2762.43 723.65 2773.12 713.836 2776.96 705.16C2783.8 688.945 2781.95 675.006 2768.56 643.145C2747.18 592.367 2724.24 559.511 2682.77 520.539C2667.53 506.173 2665.53 503.755 2659.69 491.95C2654.99 482.135 2650.71 476.019 2642.59 467.343C2617.65 441.029 2577.9 422.966 2558.52 429.366Z" fill="#000000" fill-rule="nonzero" opacity="1" stroke="none"/>
<path d="M1782.64 469.192C1761.69 475.45 1744.88 485.265 1731.2 499.488C1715.81 515.418 1705.41 533.055 1699.85 552.257C1697.71 559.796 1695.72 562.925 1687.03 572.17C1667.36 593.079 1656.68 609.72 1645.85 635.749C1642.57 643.572 1637.01 656.089 1633.45 663.485C1616.92 698.475 1609.79 722.37 1605.38 758.924C1600.25 800.884 1600.67 818.521 1609.51 899.595C1610.79 910.974 1612.79 929.749 1613.93 941.554C1618.2 984.082 1620.2 1003.14 1622.33 1021.92C1628.18 1074.83 1628.89 1078.95 1633.88 1089.48C1635.73 1093.32 1637.01 1096.73 1636.73 1096.87C1636.44 1097.16 1632.59 1098.3 1628.03 1099.43C1615.78 1102.71 1598.82 1110.39 1587.57 1117.78C1577.16 1124.75 1560.92 1140.83 1553.37 1151.78C1546.1 1162.44 1537.98 1180.79 1533.7 1196.15C1530 1209.67 1529.71 1211.94 1529.71 1240.96C1529.71 1272.11 1530.71 1280.64 1537.12 1303.54C1550.52 1351.9 1576.31 1396.14 1611.08 1430.7C1632.88 1452.18 1663.8 1472.94 1686.74 1481.34C1697.71 1485.32 1700.71 1485.74 1710.68 1485.32L1721.94 1484.89L1726.35 1503.38C1742.74 1570.66 1772.38 1653.72 1797.89 1703.93C1804.01 1715.88 1804.58 1717.73 1805.58 1731.67C1806.15 1739.92 1807.29 1754 1808.15 1762.96C1809 1771.92 1809.71 1784.3 1809.71 1790.27L1809.71 1801.36L1801.31 1801.36C1783.92 1801.36 1758.56 1809.76 1741.74 1820.85C1718.66 1836.35 1702.84 1852.14 1677.76 1885.14C1671.64 1893.39 1658.67 1908.32 1648.98 1918.42C1622.62 1946.02 1621.62 1948.86 1621.62 1996.94L1621.62 2029.65L1611.93 2034.2C1591.84 2043.73 1537.41 2074.74 1510.48 2091.95C1495.09 2101.91 1471.72 2118.26 1412.87 2160.51C1282.06 2254.38 1236.18 2286.38 1151.82 2342.85C1039.25 2417.95 1023.86 2429.47 984.103 2468.3C913.426 2537.57 881.792 2592.19 847.594 2703.84C833.059 2751.64 812.54 2827.73 804.276 2864.57C802.993 2869.97 801.141 2878.08 800.143 2882.35C796.723 2896.86 785.466 2949.77 781.192 2971.25C776.632 2993.58 774.209 3006.38 770.22 3028.85C768.937 3036.25 766.942 3047.2 765.945 3053.03C750.983 3136.1 739.013 3234.24 731.176 3339.63C722.911 3448.3 720.204 3525.25 718.922 3675.31C718.637 3721.39 717.924 3766.2 717.354 3774.59C716.642 3786.96 716.927 3791.66 718.922 3798.77C723.624 3815.55 734.738 3826.36 750.413 3829.63C762.81 3832.19 777.629 3826.65 787.034 3816.12C793.161 3809.29 795.156 3801.61 795.013 3785.68C794.871 3777.43 795.868 3758.8 797.151 3744.29C800.143 3709.73 800.856 3665.07 798.291 3660.8C794.016 3653.12 798.433 3487.27 805.843 3377.33C808.408 3341.48 811.685 3299.52 813.68 3281.32C814.393 3274.21 815.39 3264.39 815.818 3259.27C816.245 3254.15 817.243 3244.91 817.955 3238.65C818.667 3232.39 820.235 3218.59 821.517 3208.07C832.204 3115.61 853.009 2996.85 875.665 2899.42C876.663 2895.15 878.515 2887.04 879.655 2881.64C881.935 2871.82 894.332 2823.04 901.172 2797.72C910.434 2762.73 924.541 2716.5 933.375 2691.04C935.798 2683.93 938.79 2675.4 940.072 2671.84C948.195 2648.51 970.851 2602.86 978.688 2593.9L982.536 2589.49L998.21 2595.89C1049.08 2616.37 1097.1 2646.52 1130.02 2678.95C1156.24 2704.7 1175.9 2733.43 1200.55 2782.07C1224.49 2829.44 1237.89 2862.15 1256.98 2919.76C1273.65 2970.53 1277.93 2976.94 1293.32 2976.79C1301.58 2976.65 1308.28 2972.38 1312.12 2964.85C1315.4 2958.73 1315.4 2957.59 1314.69 2935.69C1312.27 2863.72 1282.06 2770.41 1237.89 2698.44C1210.1 2653.07 1169.06 2610.25 1125.03 2580.81C1098.1 2562.89 1053.07 2538.57 1034.26 2532.02C1032.84 2531.46 1031.7 2530.6 1031.7 2529.89C1031.7 2529.18 1037.68 2523.06 1044.95 2516.52C1078.58 2485.8 1093.68 2474.85 1189.72 2410.41C1273.65 2354.23 1324.38 2318.96 1436.38 2238.74C1454.76 2225.65 1473 2212.56 1476.85 2209.86C1480.69 2207.16 1492.95 2198.34 1503.92 2190.38C1515.04 2182.41 1530.71 2171.46 1538.97 2165.91C1571.32 2144.43 1627.18 2112 1628.75 2113.85C1629.17 2114.42 1630.46 2119.12 1631.45 2124.24C1635.16 2144.15 1648.84 2193.08 1655.25 2209.58C1656.25 2212.28 1661.23 2226.08 1666.36 2240.16C1697.29 2326.5 1724.93 2380.97 1760.7 2425.78C1773.52 2441.85 1804.58 2472.71 1812.56 2477.41C1821.26 2482.38 1838.35 2487.22 1849.61 2487.93C1861.15 2488.64 1869.28 2485.51 1877.68 2476.98C1887.66 2466.88 1889.51 2458.92 1889.51 2426.63C1889.51 2380.12 1894.64 2359.49 1910.17 2344.13C1915.44 2338.87 1924.85 2333.32 1928.55 2333.32C1929.69 2333.32 1933.26 2338.3 1936.68 2344.27C1939.95 2350.39 1946.94 2362.05 1952.21 2370.3C1976.15 2408.14 2005.79 2467.17 2024.17 2513.96C2027.02 2521.36 2031.15 2531.88 2033.43 2537.43C2035.57 2542.83 2038.42 2550.23 2039.7 2553.79C2040.84 2557.34 2043.83 2565.59 2046.4 2572.28C2057.51 2602.43 2078.74 2664.02 2103.11 2737.27C2110.09 2758.04 2116.93 2777.81 2118.5 2781.36C2120.21 2784.92 2123.49 2792.6 2126.05 2798.43C2140.58 2831.86 2153.12 2852.91 2162.24 2858.74C2173.36 2865.99 2189.6 2861.72 2195.3 2850.06C2200.43 2839.25 2199.43 2811.37 2192.88 2775.1C2186.9 2743.1 2179.34 2718.92 2136.88 2595.75C2123.49 2556.63 2099.55 2492.91 2089.86 2470.01C2087.01 2463.33 2085.01 2457.78 2085.3 2457.35C2085.58 2457.07 2087.29 2457.64 2089 2458.49C2093.99 2461.19 2124.91 2471.15 2135.46 2473.42C2171.22 2481.39 2197.16 2484.09 2236.48 2484.09C2310.72 2484.09 2382.25 2471.29 2442.67 2447.25C2455.07 2442.42 2479.86 2430.18 2488.13 2424.92C2491.12 2423.07 2493.83 2421.51 2494.11 2421.51C2494.54 2421.51 2495.11 2430.9 2495.68 2442.42C2496.25 2454.08 2497.25 2473 2498.1 2484.8C2500.24 2517.66 2499.95 2548.24 2497.39 2563.74C2496.11 2571.14 2491.55 2594.89 2487.27 2616.37C2478.15 2661.88 2477.73 2664.16 2473.59 2686.78C2468.75 2713.94 2456.92 2773.25 2453.79 2786.77C2444.67 2825.88 2441.39 2836.26 2436.12 2843.23C2427.57 2854.33 2427.43 2855.47 2427.57 2908.66C2427.57 2935.26 2428.42 2980.63 2429.28 3009.65C2430.28 3038.52 2431.7 3081.48 2432.41 3104.95C2433.98 3152.45 2435.83 3195.98 2438.11 3234.38C2438.82 3248.46 2440.53 3277.62 2441.67 3299.1C2444.24 3345.89 2447.52 3398.95 2449.51 3426.4C2450.37 3437.35 2451.65 3456.55 2452.36 3469.07C2453.07 3481.58 2454.78 3505.62 2455.92 3522.41C2457.06 3539.19 2458.63 3562.94 2459.49 3575.03C2460.2 3587.12 2461.2 3600.64 2461.62 3604.9C2462.05 3609.17 2463.05 3622.25 2463.76 3634.06C2464.47 3645.72 2466.18 3669.33 2467.32 3686.26C2468.46 3703.33 2470.46 3730.92 2471.6 3747.42C2475.73 3806.45 2475.87 3808.58 2480.15 3817.26C2486.56 3831.06 2499.24 3839.02 2514.35 3838.74C2530.73 3838.45 2542.99 3829.21 2549.4 3812.42C2552.25 3804.46 2552.54 3802.47 2551.54 3782.98C2551.11 3771.46 2549.97 3754.96 2549.26 3746.43C2548.55 3737.75 2547.26 3720.54 2546.41 3708.02C2543.84 3671.18 2542.28 3648.71 2540 3616.28C2535.86 3558.11 2529.74 3466.93 2527.88 3438.49C2527.17 3426.4 2525.89 3407.2 2525.03 3395.82C2524.32 3384.44 2522.61 3358.27 2521.47 3337.5C2520.33 3316.73 2518.76 3289.85 2517.91 3277.76C2517.2 3265.67 2516.2 3247.75 2515.77 3237.94C2515.34 3228.12 2514.35 3208.92 2513.63 3195.27C2511.5 3157.86 2509.5 3103.81 2507.93 3045.92C2507.22 3017.33 2505.8 2970.96 2504.94 2942.8L2503.23 2891.59L2508.36 2878.79C2513.78 2865 2521.04 2839.11 2529.17 2804.12C2531.73 2793.31 2545.41 2724.9 2549.12 2704.56C2553.96 2677.39 2557.24 2660.46 2562.94 2632.73C2577.47 2561.47 2578.75 2547.81 2575.9 2492.63C2574.76 2471.15 2574.19 2453.08 2574.48 2452.37C2576.33 2448.96 2594.57 2465.89 2604.55 2480.25C2612.24 2491.35 2620.5 2507.13 2627.49 2523.92C2636.75 2546.25 2649.72 2557.06 2667.24 2557.06C2674.65 2557.06 2678.36 2556.2 2683.91 2553.36C2697.31 2546.67 2702.72 2537.29 2704.58 2517.8C2705.29 2510.55 2706.57 2500.16 2707.57 2494.76C2709.56 2482.53 2708.57 2455.79 2704.58 2417.95C2698.02 2355.23 2691.32 2317.53 2681.06 2285.25C2678.93 2278.7 2677.64 2273.01 2677.93 2272.59C2678.36 2272.3 2689.76 2277.42 2703.44 2284.11C2727.52 2296.06 2738.2 2301.6 2771.55 2319.81C2810.73 2341.15 2884.4 2380.69 2909.06 2393.77C3017.07 2450.67 3064.52 2480.82 3115.1 2524.2C3123.94 2531.74 3124.65 2532.74 3125.5 2539.85C3126.07 2543.97 3127.78 2551.23 3129.35 2555.92C3140.89 2591.19 3148.73 2648.09 3157.71 2765.72C3158.42 2775.53 3159.42 2786.06 3159.84 2789.19C3160.27 2792.31 3161.13 2802.27 3161.98 2811.23C3166.4 2861.72 3177.66 2953.61 3184.21 2991.59C3192.33 3039.23 3198.46 3050.9 3215.7 3050.9C3229.52 3050.9 3236.65 3042.22 3238.36 3023.45C3240.92 2993.15 3234.8 2786.06 3230.95 2772.4C3230.52 2771.12 3230.81 2769.98 3231.52 2769.98C3234.23 2769.98 3257.17 2852.34 3267.43 2899.42C3278.4 2949.2 3288.52 3003.11 3293.79 3039.52C3294.93 3047.34 3296.5 3057.87 3297.21 3062.99C3304.33 3110.21 3315.02 3201.52 3319.3 3250.74C3324.43 3308.91 3325.85 3327.97 3328.7 3378.75C3329.41 3392.4 3330.7 3415.16 3331.55 3429.24C3334.97 3488.98 3337.96 3596.23 3339.39 3705.89C3340.24 3777.58 3340.67 3783.98 3344.37 3791.23C3351.64 3805.6 3360.48 3811.14 3375.72 3811.14C3397.38 3811.14 3410.06 3797.63 3415.05 3769.18C3418.19 3750.98 3417.62 3685.12 3412.77 3524.54C3408.78 3392.83 3400.09 3265.53 3387.84 3160.42C3382.14 3111.35 3377.58 3076.93 3369.31 3021.03C3364.89 2991.44 3351.64 2919.19 3347.37 2901.55C3346.51 2898.42 3344.52 2889.75 3342.95 2882.35C3325.71 2805.12 3304.62 2735.28 3274.13 2654.06C3256.74 2607.55 3226.67 2538.57 3215.99 2520.36C3204.87 2501.3 3187.77 2483.66 3152.15 2454.51C3098.43 2410.41 3053.83 2382.82 2937.55 2321.23C2915.33 2309.57 2900.79 2301.75 2893.38 2297.76C2889.53 2295.63 2878.28 2289.51 2868.44 2284.25C2841.37 2269.6 2826.98 2261.78 2785.8 2239.45C2765.42 2228.35 2700.59 2196.63 2679.64 2187.53C2669.52 2182.98 2654.28 2177.15 2645.87 2174.3L2630.48 2169.33L2626.35 2158.52C2624.07 2152.54 2618.79 2139.74 2614.81 2130.07C2610.82 2120.4 2604.69 2103.04 2601.13 2091.67C2588.44 2050.7 2583.17 2040.03 2567.78 2024.53C2552.25 2008.88 2532.73 1999.64 2506.65 1995.37C2500.1 1994.38 2494.4 1993.1 2493.97 1992.67C2492.83 1991.67 2496.25 1956.54 2498.67 1942.18C2502.09 1922.97 2507.79 1902.35 2512.07 1892.96C2515.34 1885.99 2520.33 1880.02 2538.86 1861.67C2566.93 1833.79 2581.89 1815.16 2600.27 1785.01C2609.25 1770.5 2625.92 1737.36 2629.77 1726.69C2631.19 1722.71 2632.9 1718.87 2633.33 1718.16C2638.46 1710.76 2659.83 1640.5 2670.24 1597.26C2672.66 1587.02 2675.51 1575.21 2676.65 1570.94C2677.64 1566.68 2680.64 1553.31 2683.34 1541.36L2688.05 1519.6L2701.87 1512.34C2745.9 1489.44 2784.52 1445.78 2815.01 1384.76C2828.69 1357.16 2837.24 1332.98 2843.65 1303.54C2845.65 1294.3 2846.36 1285.34 2846.36 1265.85C2846.36 1243.38 2845.93 1238.82 2843.08 1229.01C2834.53 1199.57 2818.71 1178.38 2796.2 1166.57C2784.8 1160.6 2768.27 1155.76 2757.73 1155.33L2750.17 1155.05L2750.17 1134.28C2750.17 1121.91 2751.03 1110.24 2752.17 1105.12C2753.31 1100.43 2754.59 1092.04 2755.16 1086.63C2756.87 1068.43 2760.29 1042.97 2765.99 1006.27C2768.98 986.358 2772.12 965.449 2772.97 960.045C2775.82 941.27 2778.53 913.107 2780.81 878.971C2781.95 860.196 2783.66 836.158 2784.52 825.633C2787.79 783.531 2787.79 781.113 2784.8 774.286C2778.1 759.067 2765.85 751.102 2749.46 751.102C2741.77 751.102 2737.92 751.813 2733.08 754.373C2713.41 764.472 2709.28 776.704 2705.86 836.3C2702.44 896.75 2702.44 896.75 2701.16 889.496C2700.59 885.798 2700.44 879.113 2701.01 874.561C2703.58 852.231 2701.58 843.127 2692.18 832.602C2685.62 825.348 2685.2 825.206 2653.28 813.116C2625.92 802.875 2620.93 800.741 2593.43 787.656C2563.36 773.432 2561.37 773.006 2522.61 772.579L2488.7 772.295L2475.16 767.032C2442.96 754.657 2430.85 752.524 2393.23 752.666C2372.28 752.666 2361.74 753.235 2353.33 754.942C2311.44 763.76 2295.62 773.859 2295.62 791.923C2295.62 816.956 2321.41 827.197 2389.95 829.757C2422.3 830.895 2425.29 831.18 2435.26 834.878C2473.17 848.532 2482 850.239 2516.2 849.955L2543.7 849.813L2556.1 855.644C2577.61 865.885 2598.28 874.988 2601.98 876.126C2603.98 876.695 2606.26 877.691 2606.97 878.26C2607.82 878.828 2611.81 880.393 2615.95 881.815L2623.35 884.518L2623.35 893.052C2623.35 904.146 2626.92 928.611 2629.91 939.136C2632.76 948.95 2637.6 958.764 2644.73 969.29C2653.71 982.518 2656.56 990.056 2660.4 1010.54C2661.12 1014.8 2662.83 1022.77 2663.97 1028.32C2667.53 1044.39 2673.09 1085.35 2673.23 1097.16C2673.23 1100.15 2672.94 1100.29 2670.52 1098.58C2668.95 1097.44 2663.4 1093.46 2657.98 1089.62C2639.88 1076.53 2628.91 1073.83 2610.25 1077.96C2605.26 1078.95 2596.85 1080.52 2591.29 1081.51C2554.39 1087.2 2543.42 1089.48 2509.36 1098.01C2456.92 1111.1 2433.13 1122.19 2427.85 1135.7C2426 1140.68 2427.85 1156.33 2430.7 1159.88C2433.13 1162.59 2433.13 1162.59 2443.1 1159.88C2448.66 1158.32 2459.77 1155.76 2468.04 1154.2C2481.43 1151.78 2491.69 1150.35 2527.88 1145.66C2585.88 1138.26 2617.51 1140.83 2658.12 1156.19C2663.68 1158.32 2668.81 1159.74 2669.67 1159.32C2671.95 1158.46 2671.09 1180.94 2667.39 1220.33C2665.68 1237.54 2664.68 1255.75 2664.96 1260.87C2667.1 1290.17 2691.32 1307.1 2715.26 1295.86C2730.94 1288.61 2740.06 1271.54 2742.76 1244.37L2743.76 1234.7L2749.32 1233.56C2757.01 1232 2761.57 1234.56 2765.71 1242.95C2777.11 1265.85 2765.14 1317.34 2737.21 1366.27C2731.79 1375.65 2724.67 1387.03 2721.25 1391.44L2715.26 1399.55L2714.55 1391.73C2713.41 1378.5 2705.57 1368.12 2691.75 1361C2685.62 1357.88 2670.24 1357.45 2663.25 1360.29C2651.85 1364.99 2642.73 1375.37 2638.74 1388.17C2636.32 1395.99 2632.33 1412.21 2629.91 1423.73C2628.48 1429.99 2626.49 1438.95 2625.49 1443.64C2621.79 1460.14 2619.08 1472.37 2612.67 1501.96C2600.98 1555.87 2590.72 1598.11 2582.89 1625.13C2568.92 1672.78 2561.94 1691.42 2546.12 1722.71C2528.88 1756.99 2509.64 1782.73 2481.29 1809.9C2458.77 1831.52 2434.41 1848.87 2386.81 1877.32C2327.54 1912.73 2293.2 1934.92 2285.36 1942.89C2267.4 1960.95 2275.38 1983.85 2300.18 1985.84C2317.28 1987.26 2364.02 1972.61 2407.19 1952.56C2413.18 1949.71 2418.59 1947.72 2419.02 1948.29C2419.45 1948.72 2419.02 1954.12 2418.02 1960.24C2415.31 1975.89 2415.31 2067.49 2417.88 2085.83C2425 2136.18 2437.4 2172.88 2454.21 2192.94C2459.34 2199.19 2460.77 2202.75 2470.32 2236.32C2476.16 2256.37 2482.14 2278.99 2483.71 2286.38C2486.28 2299.04 2489.41 2321.52 2489.41 2328.63C2489.41 2330.9 2484.85 2334.74 2469.18 2345.13C2445.52 2360.77 2432.84 2367.6 2413.18 2375.57C2360.17 2397.19 2287.78 2408.99 2222.95 2406.86C2185.47 2405.58 2162.1 2401.6 2131.04 2391.35C2110.38 2384.53 2094.84 2376.7 2067.63 2358.78C2042.41 2342.14 2025.45 2331.62 2020.32 2329.48C2016.05 2327.63 2007.21 2313.55 1997.09 2292.5C1989.68 2277.14 1984.27 2270.6 1975.58 2266.47C1969.88 2263.63 1968.45 2261.92 1962.18 2249.55C1955.49 2236.74 1950.64 2227.64 1935.82 2200.33C1911.31 2155.1 1893.93 2116.41 1861.3 2034.63C1854.17 2016.99 1846.33 1997.79 1843.91 1991.82L1839.21 1980.86L1844.48 1972.19C1851.89 1959.96 1859.87 1943.46 1864.29 1930.8C1873.55 1904.34 1885.24 1849.87 1885.24 1832.66C1885.24 1821.13 1886.52 1821.13 1901.05 1834.08C1944.37 1872.34 1996.95 1905.62 2051.24 1929.23C2055.23 1930.94 2059.65 1932.93 2061.22 1933.64C2080.17 1942.32 2113.8 1952.84 2133.75 1956.4C2157.54 1960.52 2170.37 1955.12 2174.64 1939.19C2176.21 1933.5 2176.07 1931.65 2173.93 1925.96C2170.94 1918.28 2165.66 1913.87 2148.14 1904.48C2100.83 1879.31 2046.25 1845.6 1996.38 1810.89C1940.38 1771.92 1890.22 1716.88 1866.85 1669.09C1835.08 1603.8 1802.3 1503.81 1793.47 1444.64C1790.9 1428 1786.77 1419.75 1777.65 1412.78C1765.11 1403.25 1749.3 1402.25 1735.33 1409.79C1728.35 1413.63 1718.66 1424.3 1718.52 1428.28C1718.52 1432.83 1713.39 1428.42 1692.58 1406.24C1660.95 1372.24 1649.55 1358.87 1639.15 1343.08C1608.23 1296.29 1597.54 1239.54 1612.93 1203.55C1617.2 1193.59 1628.6 1182.36 1639.15 1177.66C1648.41 1173.4 1666.22 1171.12 1670.35 1173.54C1673.2 1175.25 1688.31 1193.03 1693.87 1201.13C1703.41 1215.21 1711.68 1237.12 1713.53 1253.76C1717.52 1287.61 1727.78 1318.76 1738.75 1330.14C1744.74 1336.26 1751.15 1339.1 1759.13 1339.1C1772.81 1339.1 1781.64 1330.14 1788.2 1309.37C1797.46 1279.93 1797.89 1276.52 1799.03 1201.13C1799.45 1168.42 1800.31 1152.35 1801.73 1146.37C1803.44 1139.12 1809.71 1120.2 1831.09 1058.9C1838.35 1037.99 1843.2 1030.88 1862.29 1011.96C1873.12 1001.29 1882.53 990.483 1885.81 985.078C1891.79 975.264 1898.91 958.196 1902.9 943.688C1910.17 917.374 1914.02 907.418 1918.72 901.586C1928.27 889.923 1943.09 881.104 1969.31 871.29C1991.25 863.04 2000.37 859.2 2015.9 851.946C2043.55 838.86 2061.07 835.02 2100.69 832.744C2118.07 831.749 2132.04 829.757 2159.96 824.352C2200.29 816.672 2225.51 812.831 2237.34 812.831C2257.43 812.689 2273.25 796.474 2273.39 775.85C2273.67 758.071 2264.27 744.559 2247.88 738.727C2240.47 736.025 2237.34 735.74 2224.37 736.451C2202.71 737.731 2162.67 744.132 2125.34 752.382C2119.92 753.52 2104.53 755.226 2091.28 755.938C2068.2 757.36 2046.4 760.062 2034.14 763.191C2025.45 765.325 2006.21 771.583 2001.37 773.717C1985.98 780.544 1979.85 783.389 1973.3 786.376C1969.16 788.225 1956.48 793.345 1945.08 797.612C1933.68 801.879 1919.86 807.569 1914.45 810.413C1908.89 813.116 1898.49 816.956 1891.36 818.948C1868.42 825.206 1831.09 841.278 1813.28 852.515C1796.46 863.183 1779.36 877.975 1771.24 888.927C1758.56 906.28 1757.85 921.641 1769.39 932.593C1778.22 940.985 1789.48 941.554 1810.43 934.585C1820.83 931.171 1824.82 930.46 1825.1 931.74C1826.1 936.007 1818.12 946.959 1802.73 962.178C1793.61 971.139 1783.07 983.229 1779.36 988.918C1772.81 998.59 1763.69 1016.8 1761.12 1024.76C1760.55 1026.75 1757.13 1036.57 1753.43 1046.81C1749.72 1056.91 1746.3 1066.86 1745.59 1068.85C1745.02 1070.85 1742.88 1075.97 1740.89 1080.23C1736.47 1089.91 1729.92 1108.82 1729.92 1111.95C1729.92 1116.08 1727.07 1116.08 1720.65 1111.81C1717.09 1109.53 1710.11 1105.84 1705.12 1103.7L1696 1099.86L1699.99 1092.18C1706.12 1080.66 1706.41 1073.12 1702.27 1038.84C1698.85 1010.11 1697.43 996.883 1692.16 945.821C1689.31 918.37 1687.88 905.284 1684.03 870.437C1679.62 830.753 1679.62 778.268 1684.03 754.515C1687.74 734.46 1692.44 719.952 1701.7 700.466C1705.55 692.216 1710.97 680.126 1713.67 673.441C1724.36 647.128 1727.21 642.861 1753.57 614.129C1766.11 600.333 1771.95 589.949 1773.81 577.859C1775.66 566.054 1784.63 552.399 1793.75 547.706C1796.6 546.283 1801.88 545.43 1808.57 545.43C1825.25 545.288 1837.93 537.749 1843.77 524.095C1852.89 502.902 1845.62 483.131 1824.82 472.606C1817.12 468.623 1814.56 468.054 1802.59 467.627C1794.32 467.485 1786.63 468.054 1782.64 469.192ZM1797.74 1882.72C1797.32 1884.57 1795.89 1890.26 1794.47 1895.38L1792.04 1904.91L1784.21 1905.76C1773.66 1907.04 1765.54 1910.88 1758.7 1918C1750.15 1926.67 1747.87 1933.78 1748.87 1949C1749.72 1964.22 1755 1980.44 1772.81 2022.54C1779.65 2038.9 1791.47 2068.05 1799.03 2087.26C1806.72 2106.46 1813.99 2124.66 1815.27 2127.79C1835.51 2174.02 1853.03 2210.57 1867 2235.89C1878.4 2256.23 1883.81 2266.76 1883.81 2267.89C1883.81 2268.46 1881.96 2269.74 1879.68 2270.6C1866.43 2276.14 1841.63 2302.17 1831.66 2320.95C1825.53 2332.47 1818.69 2352.38 1817.41 2361.91C1816.84 2365.75 1815.98 2368.88 1815.27 2368.88C1812.99 2368.88 1791.76 2335.17 1781.64 2315.54C1769.53 2291.65 1759.13 2267.47 1746.3 2233.05C1741.03 2218.97 1736.19 2206.16 1735.62 2204.6C1732.62 2197.91 1718.37 2153.54 1714.39 2139.17C1704.7 2103.47 1702.27 2083.84 1699.85 2022.97L1698 1979.3L1709.4 1967.49C1715.53 1960.95 1725.21 1950 1730.63 1943.03C1736.19 1936.06 1745.59 1924.11 1751.58 1916.43C1763.12 1901.78 1777.51 1888.84 1788.34 1883.15C1796.6 1878.74 1798.88 1878.6 1797.74 1882.72ZM2503.23 2073.74C2513.63 2076.87 2516.91 2081.42 2522.9 2101.2C2532.44 2132.2 2542.85 2160.79 2553.53 2184.69C2554.25 2186.25 2559.94 2200.05 2566.36 2215.27C2572.77 2230.49 2583.03 2253.24 2589.16 2265.76C2602.27 2292.22 2608.68 2310.56 2614.66 2338.3C2619.36 2360.2 2623.78 2387.37 2622.78 2388.37C2622.5 2388.65 2617.51 2386.52 2611.67 2383.39C2601.7 2377.84 2584.88 2371.58 2575.33 2369.59C2572.77 2369.02 2570.35 2368.17 2569.92 2367.46C2569.49 2366.75 2568.49 2354.8 2567.78 2340.86C2565.07 2292.93 2560.8 2269.03 2545.55 2217.97C2542.85 2208.87 2538.43 2192.65 2535.72 2181.84C2529.17 2155.81 2523.89 2148.13 2508.22 2142.02C2501.24 2139.17 2501.38 2139.31 2499.38 2117.84C2498.53 2109.16 2497.25 2097.35 2496.54 2091.52C2495.25 2080.57 2494.68 2071.61 2495.54 2071.61C2495.82 2071.61 2499.24 2072.61 2503.23 2073.74Z" fill="#000000" fill-rule="nonzero" opacity="1" stroke="none"/>
<path d="M1987.69 1083.08C1973.44 1085.5 1945.08 1098.87 1935.25 1107.83C1931.69 1111.24 1925.56 1116.08 1921.57 1118.64C1903.19 1131.01 1898.06 1137.55 1898.06 1148.93C1898.06 1155.76 1901.91 1162.73 1908.03 1167.28C1911.45 1169.7 1911.88 1169.7 1920.86 1167C1933.68 1163.01 1955.49 1157.04 1965.74 1154.91C1970.45 1153.91 1980.99 1151.63 1989.26 1149.79C2002.79 1146.8 2007.78 1146.51 2043.4 1146.51C2078.6 1146.37 2084.16 1146.8 2097.55 1149.64C2121.78 1154.76 2140.44 1159.32 2145.29 1161.31C2149.7 1163.01 2165.95 1166.71 2172.93 1167.57C2178.63 1168.13 2179.91 1167.71 2185.33 1163.3C2192.17 1157.61 2196.73 1147.94 2195.3 1142.11C2193.88 1136.42 2180.48 1128.88 2150.99 1117.21C2144.43 1114.65 2105.82 1102.85 2092.99 1099.43C2072.76 1094.03 2048.11 1089.19 2026.3 1086.06C1999.8 1082.22 1995.24 1081.94 1987.69 1083.08Z" fill="#000000" fill-rule="nonzero" opacity="1" stroke="none"/>
<path d="M2506.65 1201.99C2473.17 1206.82 2442.53 1221.05 2426.71 1238.97C2421.16 1245.37 2413.89 1261.01 2413.89 1266.7C2413.89 1279.36 2425.29 1288.18 2437.4 1284.91C2442.81 1283.34 2453.07 1271.97 2454.64 1265.71C2455.92 1260.59 2458.06 1261.44 2465.61 1270.12C2475.59 1281.5 2489.84 1288.18 2505.94 1289.03C2520.05 1289.75 2527.88 1288.04 2540.14 1281.35C2553.53 1274.1 2563.93 1261.01 2568.49 1245.65L2570.63 1238.68L2578.75 1239.68C2595.71 1241.81 2608.25 1243.95 2620.93 1246.65C2638.17 1250.49 2642.59 1250.35 2646.87 1245.94C2655.42 1237.54 2648.72 1227.3 2628.48 1217.49C2596.42 1202.13 2547.98 1196.01 2506.65 1201.99Z" fill="#000000" fill-rule="nonzero" opacity="1" stroke="none"/>
<path d="M2018.47 1209.67C1988.97 1214.22 1961.61 1222.47 1953.63 1229.15C1947.93 1233.85 1947.65 1241.67 1952.92 1246.65C1955.91 1249.49 1957.76 1249.92 1966.74 1249.78C1972.44 1249.63 1984.7 1248.78 1993.96 1247.93C2003.22 1247.07 2010.92 1246.51 2011.2 1246.79C2011.34 1247.07 2013.62 1251.77 2016.33 1257.32C2031.15 1288.04 2067.49 1300.55 2098.12 1285.62C2106.53 1281.5 2122.06 1266.56 2123.91 1261.01C2124.34 1259.31 2125.62 1258.03 2126.76 1258.03C2130.47 1258.03 2145.86 1270.83 2151.27 1278.37C2157.68 1287.75 2162.39 1290.74 2169.94 1290.74C2182.19 1290.74 2191.17 1278.79 2187.61 1266.99C2184.05 1255.04 2163.1 1234.56 2144.57 1224.74C2131.18 1217.77 2111.8 1211.66 2094.27 1209.1C2073.76 1206.11 2040.55 1206.25 2018.47 1209.67Z" fill="#000000" fill-rule="nonzero" opacity="1" stroke="none"/>
<path d="M2317.7 1339.81C2306.88 1343.65 2301.46 1353.75 2303.31 1366.69C2305.59 1381.63 2327.39 1409.22 2343.07 1417.05C2349.2 1420.03 2349.48 1420.46 2348.34 1424.3C2347.77 1426.57 2344.49 1433.69 2341.22 1439.95C2332.81 1456.16 2320.41 1468.96 2303.46 1479.06C2285.64 1489.73 2281.94 1496.7 2288.35 1508.36C2294.76 1520.45 2315.71 1523.44 2333.24 1514.9C2349.34 1507.08 2372.71 1481.19 2383.54 1459.29C2392.37 1441.65 2399.64 1418.18 2399.64 1407.94C2399.5 1400.4 2395.36 1391.73 2389.52 1387.32C2386.81 1385.33 2380.4 1382.2 2375.27 1380.49C2362.59 1376.37 2355.47 1369.97 2348.91 1356.88C2342.78 1344.65 2340.79 1342.51 2333.09 1339.67C2326.25 1337.25 2324.83 1337.39 2317.7 1339.81Z" fill="#000000" fill-rule="nonzero" opacity="1" stroke="none"/>
<path d="M2145.86 1607.5C2140.16 1610.91 2136.88 1617.6 2137.02 1624.99C2137.17 1637.08 2143.15 1644.19 2160.39 1652.73C2168.66 1657 2172.36 1657.85 2186.9 1659.27C2207.7 1661.26 2235.06 1660.12 2257.86 1656.28C2280.09 1652.59 2289.06 1652.73 2315 1657C2348.34 1662.54 2371.14 1661.12 2387.1 1652.44C2404.34 1643.06 2406.05 1619.3 2390.09 1612.76C2384.25 1610.2 2380.97 1610.63 2369.43 1614.89C2358.74 1618.88 2340.5 1618.88 2318.42 1614.89C2296.19 1611.05 2271.82 1611.05 2248.03 1614.89C2227.65 1618.31 2200.86 1619.02 2185.33 1616.46C2174.93 1614.89 2173.22 1614.18 2164.95 1608.49C2158.97 1604.51 2151.27 1604.08 2145.86 1607.5Z" fill="#000000" fill-rule="nonzero" opacity="1" stroke="none"/>
<path d="M1922.57 2401.74C1909.89 2408.99 1902.33 2423.5 1902.33 2440.85C1902.33 2454.65 1905.61 2462.04 1917.15 2473.71C1926.27 2482.81 1928.13 2483.95 1935.39 2485.51C1966.17 2491.63 1989.54 2467.17 1982.84 2435.59C1978.14 2413.12 1960.47 2397.33 1939.81 2397.33C1931.69 2397.33 1928.98 2398.04 1922.57 2401.74ZM1943.8 2431.46C1949.36 2434.45 1952.64 2446.11 1949.5 2451.24C1948.36 2452.94 1947.36 2452.94 1943.09 2450.81C1935.54 2447.25 1933.4 2441.85 1936.53 2433.74C1937.96 2429.76 1939.53 2429.33 1943.8 2431.46Z" fill="#000000" fill-rule="nonzero" opacity="1" stroke="none"/>
<path d="M2052.38 2730.3C2045.54 2733.57 2040.55 2738.98 2035.85 2747.79C2033.14 2752.77 2032.72 2755.9 2032.72 2768.56C2032.72 2782.07 2033.14 2784.35 2036.71 2791.6C2041.12 2800.56 2051.95 2811.23 2056.8 2811.23C2058.51 2811.37 2061.36 2812.23 2063.35 2813.37C2065.49 2814.65 2070.91 2815.36 2076.89 2815.36C2089.57 2815.36 2097.98 2811.52 2103.96 2802.56C2108.1 2796.58 2108.24 2795.59 2108.24 2781.36C2108.24 2766.43 2106.67 2759.32 2100.97 2748.51C2097.41 2741.54 2088.72 2732.72 2082.59 2730.02C2074.47 2726.32 2060.08 2726.46 2052.38 2730.3ZM2072.47 2766.14C2073.9 2769.13 2075.32 2774.11 2075.75 2777.1C2076.46 2782.07 2076.18 2782.78 2073.76 2782.78C2067.77 2782.78 2063.21 2772.26 2065.35 2763.58C2066.63 2758.6 2069.2 2759.6 2072.47 2766.14Z" fill="#000000" fill-rule="nonzero" opacity="1" stroke="none"/>
<path d="M2531.02 2876.38C2525.18 2881.78 2524.46 2886.62 2525.32 2915.63C2526.03 2942.51 2527.46 2948.06 2534.87 2952.47C2541.85 2956.6 2547.41 2955.6 2553.96 2949.2L2559.66 2943.37L2558.8 2929.57C2558.23 2922.03 2557.81 2908.24 2557.81 2899.13C2557.81 2882.49 2557.81 2882.49 2553.39 2877.37C2549.54 2872.96 2548.12 2872.39 2542.13 2872.39C2536.58 2872.39 2534.44 2873.1 2531.02 2876.38Z" fill="#000000" fill-rule="nonzero" opacity="1" stroke="none"/>
<path d="M2182.34 2892.16C2174.21 2894.44 2170.37 2896.43 2164.67 2901.55C2153.84 2911.36 2149.7 2926.3 2153.69 2942.09C2158.11 2960.01 2167.37 3010.64 2173.64 3050.9C2183.48 3115.47 2190.03 3173.79 2195.87 3250.74C2196.59 3261.26 2198.01 3277.62 2198.72 3287.01C2200.43 3306.78 2203.42 3349.88 2206.56 3396.53C2207.7 3414.45 2209.27 3439.2 2210.12 3451.29C2210.98 3463.38 2212.26 3484.57 2212.97 3498.23C2216.11 3550.43 2218.67 3594.66 2219.38 3605.61C2219.81 3611.87 2221.09 3633.35 2222.23 3653.26C2223.37 3673.18 2225.08 3697.78 2225.8 3708.02C2226.51 3718.12 2227.93 3737.75 2228.79 3751.4C2229.64 3765.06 2230.93 3779.14 2231.64 3782.7C2234.06 3793.36 2239.76 3802.04 2248.17 3807.87C2255.15 3812.71 2257.15 3813.28 2266.69 3813.7C2279.8 3814.41 2287.35 3811.85 2295.62 3803.89C2306.88 3792.94 2308.87 3782.98 2306.31 3749.27C2305.17 3736.04 2303.31 3708.73 2302.17 3688.82C2300.89 3668.91 2299.18 3642.88 2298.47 3631.22C2297.61 3619.41 2296.33 3598.64 2295.62 3584.99C2292.77 3533.93 2291.34 3509.75 2289.92 3488.27C2289.21 3476.18 2287.5 3450.58 2286.36 3431.38C2283.51 3385.86 2280.23 3338.5 2278.52 3315.45C2277.66 3305.21 2276.38 3288.29 2275.67 3277.76C2266.12 3144.2 2253.58 3044.92 2233.63 2945.5C2226.65 2910.8 2222.52 2902.97 2207.13 2895.15C2201 2891.88 2188.61 2890.46 2182.34 2892.16Z" fill="#000000" fill-rule="nonzero" opacity="1" stroke="none"/>
<path d="M1296.59 3097.98C1287.62 3100.68 1277.93 3109.5 1273.94 3118.74C1270.23 3127.42 1270.37 3133.54 1275.22 3165.4C1285.91 3236.94 1292.03 3325.84 1298.16 3498.23C1298.87 3519.7 1300.15 3550.14 1300.87 3565.79C1301.72 3581.43 1302.72 3602.48 1303.15 3612.73C1304.86 3652.69 1310.84 3737.32 1312.12 3739.31C1312.69 3740.03 1313.41 3753.25 1313.98 3768.47C1314.69 3790.09 1315.4 3797.49 1317.25 3801.76C1322.81 3814.41 1334.35 3824.23 1346.89 3827.07C1360.71 3830.06 1376.96 3822.81 1384.51 3810C1390.35 3800.48 1391.64 3791.94 1388.79 3782.27C1386.65 3774.45 1384.65 3754.11 1382.23 3713.71C1381.38 3700.34 1379.81 3673.89 1378.67 3654.68C1376.39 3617.7 1373.25 3549 1370.83 3486.85C1364.28 3311.47 1358.58 3231.68 1347.18 3153.31C1345.33 3139.94 1343.05 3126.71 1342.48 3123.72C1339.48 3111.35 1327.8 3099.97 1315.12 3097.27C1306.28 3095.27 1304.71 3095.42 1296.59 3097.98Z" fill="#000000" fill-rule="nonzero" opacity="1" stroke="none"/>
<path d="M2141.01 3256C2131.75 3260.84 2124.77 3267.95 2120.49 3276.77C2106.53 3305.64 2115.36 3333.23 2141.87 3342.48C2154.98 3347.17 2171.36 3343.47 2181.05 3333.8C2190.46 3324.42 2192.31 3319.29 2192.31 3301.94C2192.31 3288.57 2191.88 3286.15 2188.46 3279.18C2183.19 3268.52 2175.21 3259.41 2168.23 3256.28C2160.96 3253.01 2147 3252.87 2141.01 3256ZM2157.26 3291.13C2161.39 3297.82 2161.39 3308.34 2157.26 3310.62C2154.98 3311.76 2153.27 3311.76 2150.84 3310.62C2147.99 3309.34 2147.42 3308.06 2147.42 3302.37C2147.42 3296.54 2151.41 3286.3 2153.69 3286.3C2153.98 3286.3 2155.69 3288.43 2157.26 3291.13Z" fill="#000000" fill-rule="nonzero" opacity="1" stroke="none"/>
<path d="M2839.23 3280.32C2831.68 3283.88 2821.99 3294.55 2820.14 3301.52C2810.59 3336.36 2807.6 3357.41 2796.49 3464.8C2795.35 3476.46 2794.06 3488.98 2793.49 3492.54C2790.5 3516.72 2783.52 3584.14 2781.67 3606.32C2777.53 3654.68 2774.68 3766.2 2777.25 3779.71C2781.1 3800.9 2793.78 3812.57 2812.87 3812.57C2826.55 3812.57 2838.24 3805.6 2844.22 3794.07C2848.92 3784.97 2849.78 3772.88 2850.49 3713.71C2851.35 3638.9 2853.63 3609.03 2868.44 3479.02C2869.16 3471.91 2870.87 3456.98 2872.01 3445.6C2873.15 3434.22 2874.71 3418.86 2875.57 3411.46C2876.42 3404.07 2877.71 3391.27 2878.56 3383.02C2879.42 3374.77 2880.7 3367.51 2881.27 3366.8C2881.98 3366.09 2887.4 3366.94 2893.95 3368.65C2914.33 3374.2 2928.29 3376.19 2977.45 3380.88C2989.28 3382.02 3008.52 3384.01 3020.2 3385.29C3032.03 3386.57 3061.1 3387.99 3085.04 3388.56L3128.35 3389.42L3129.64 3394.39C3131.63 3402.93 3132.49 3558.11 3130.78 3634.2C3129.21 3703.19 3126.64 3752.83 3123.51 3769.75C3119.09 3794.22 3127.78 3814.13 3145.6 3820.25C3155.14 3823.38 3162.41 3823.09 3170.96 3818.97C3184.78 3812.57 3192.05 3801.47 3195.33 3781.7C3201.6 3744.86 3204.73 3656.68 3204.73 3515.15C3204.73 3379.74 3203.16 3365.38 3186.21 3340.35C3180.79 3332.38 3176.37 3328.4 3167.82 3324.13C3156 3318.01 3151.44 3317.45 3097.86 3316.02C3069.22 3315.31 3040.43 3314.17 3033.74 3313.46C3027.04 3312.61 3011.65 3311.04 2999.54 3309.91C2987.43 3308.77 2970.47 3307.06 2961.78 3306.21C2925.58 3302.65 2905.64 3297.67 2881.27 3285.87C2868.02 3279.47 2865.02 3278.62 2855.62 3278.19C2847.36 3277.76 2843.65 3278.33 2839.23 3280.32Z" fill="#000000" fill-rule="nonzero" opacity="1" stroke="none"/>
<path d="M2586.02 3386.71C2581.18 3389.27 2578.33 3394.54 2577.19 3402.93C2575.9 3411.89 2578.47 3468.21 2580.46 3473.05C2586.02 3487.42 2602.41 3487.42 2608.39 3473.05C2611.53 3465.65 2611.53 3398.95 2608.39 3392.97C2604.4 3385.29 2594 3382.3 2586.02 3386.71Z" fill="#000000" fill-rule="nonzero" opacity="1" stroke="none"/>
<path d="M2165.24 3731.35C2143.15 3737.04 2127.62 3760.79 2133.03 3780.85C2134.6 3786.54 2142.58 3795.5 2146.43 3795.5C2147.42 3795.64 2149.42 3797.63 2150.99 3800.05C2155.83 3807.73 2160.96 3810.43 2169.94 3810.43C2183.48 3810.29 2198.58 3801.19 2204.56 3789.52C2210.55 3777.72 2208.84 3759.51 2200.43 3745.71C2193.59 3734.62 2177.78 3728.22 2165.24 3731.35ZM2174.5 3767.9C2176.49 3773.02 2176.35 3773.88 2172.22 3776.44C2168.37 3779 2166.8 3778.29 2165.38 3773.17C2164.67 3771.03 2165.38 3769.18 2167.52 3767.19C2171.65 3763.35 2172.79 3763.49 2174.5 3767.9Z" fill="#000000" fill-rule="nonzero" opacity="1" stroke="none"/>
</g>
</g>
</svg>
